<svg width="295" height="295" viewBox="0 0 295 295" fill="none" xmlns="http://www.w3.org/2000/svg">
<path d="M248.906 36.875H46.0938C25.7282 36.875 9.21875 53.3845 9.21875 73.75V221.25C9.21875 241.615 25.7282 258.125 46.0938 258.125H248.906C269.272 258.125 285.781 241.615 285.781 221.25V73.75C285.781 53.3845 269.272 36.875 248.906 36.875Z" fill="#459A45"/>
<path opacity="0.15" d="M248.906 36.875H46.0938C25.7295 36.875 9.21875 53.3858 9.21875 73.75V221.25C9.21875 241.614 25.7295 258.125 46.0938 258.125H248.906C269.27 258.125 285.781 241.614 285.781 221.25V73.75C285.781 53.3858 269.27 36.875 248.906 36.875ZM276.562 221.25C276.562 236.498 264.154 248.906 248.906 248.906H46.0938C30.8459 248.906 18.4375 236.498 18.4375 221.25V73.75C18.4375 58.5022 30.8459 46.0938 46.0938 46.0938H248.906C264.154 46.0938 276.562 58.5022 276.562 73.75V221.25Z" fill="black"/>
<path d="M32.0078 147.5L147.5 221.25L262.993 147.5L147.5 73.75L32.0078 147.5Z" fill="#FEDF00"/>
<path d="M147.5 193.594C172.957 193.594 193.594 172.957 193.594 147.5C193.594 122.043 172.957 101.406 147.5 101.406C122.043 101.406 101.406 122.043 101.406 147.5C101.406 172.957 122.043 193.594 147.5 193.594Z" fill="#0A2172"/>
<path d="M129.063 133.672C119.871 133.672 111.012 135.045 102.577 137.442C101.858 140.669 101.415 143.988 101.406 147.426C110.109 144.522 119.392 142.881 129.053 142.881C152.321 142.881 173.451 152.063 189.15 166.924C190.552 163.919 191.695 160.784 192.432 157.465C175.433 142.679 153.299 133.653 129.053 133.653L129.063 133.672Z" fill="white"/>
<path opacity="0.2" d="M248.906 46.0938H46.0938C30.8183 46.0938 18.4375 58.4745 18.4375 73.75V82.9688C18.4375 67.6933 30.8183 55.3125 46.0938 55.3125H248.906C264.182 55.3125 276.562 67.6933 276.562 82.9688V73.75C276.562 58.4745 264.182 46.0938 248.906 46.0938Z" fill="white"/>
</svg>
