<svg width="295" height="295" viewBox="0 0 295 295" fill="none" xmlns="http://www.w3.org/2000/svg">
<path d="M9.21875 221.25C9.21875 241.614 25.7295 258.125 46.0938 258.125H248.906C269.27 258.125 285.781 241.614 285.781 221.25V138.281H9.21875V221.25Z" fill="#C73A29"/>
<path d="M248.906 36.875H46.0938C25.7295 36.875 9.21875 53.3858 9.21875 73.75V147.5H285.781V73.75C285.781 53.3858 269.27 36.875 248.906 36.875Z" fill="white"/>
<path d="M46.0938 36.875H119.844V147.5H9.21875V73.75C9.21875 53.395 25.7388 36.875 46.0938 36.875Z" fill="#1435A1"/>
<path opacity="0.15" d="M248.906 36.875H46.0938C25.7295 36.875 9.21875 53.3858 9.21875 73.75V221.25C9.21875 241.614 25.7295 258.125 46.0938 258.125H248.906C269.27 258.125 285.781 241.614 285.781 221.25V73.75C285.781 53.3858 269.27 36.875 248.906 36.875ZM276.562 221.25C276.562 236.498 264.154 248.906 248.906 248.906H46.0938C30.8459 248.906 18.4375 236.498 18.4375 221.25V73.75C18.4375 58.5022 30.8459 46.0938 46.0938 46.0938H248.906C264.154 46.0938 276.562 58.5022 276.562 73.75V221.25Z" fill="black"/>
<path d="M75.0973 98.4009L92.1981 85.9741H71.0595L64.5327 65.8772L58.0058 85.9741H36.8672L53.968 98.4009L47.4319 118.498L64.5327 106.08L81.6334 118.498L75.0973 98.4009Z" fill="white"/>
<path opacity="0.2" d="M248.906 46.0938H46.0938C30.8183 46.0938 18.4375 58.4745 18.4375 73.75V82.9688C18.4375 67.6933 30.8183 55.3125 46.0938 55.3125H248.906C264.182 55.3125 276.562 67.6933 276.562 82.9688V73.75C276.562 58.4745 264.182 46.0938 248.906 46.0938Z" fill="white"/>
</svg>
