<svg width="295" height="296" viewBox="0 0 295 296" fill="none" xmlns="http://www.w3.org/2000/svg">
<path d="M248.906 37H46.0938C25.7282 37 9.21875 53.5655 9.21875 74V222C9.21875 242.435 25.7282 259 46.0938 259H248.906C269.272 259 285.781 242.435 285.781 222V74C285.781 53.5655 269.272 37 248.906 37Z" fill="#DB362F"/>
<path opacity="0.15" d="M248.906 37H46.0938C25.7295 37 9.21875 53.5667 9.21875 74V222C9.21875 242.433 25.7295 259 46.0938 259H248.906C269.27 259 285.781 242.433 285.781 222V74C285.781 53.5667 269.27 37 248.906 37ZM276.562 222C276.562 237.299 264.154 249.75 248.906 249.75H46.0938C30.8459 249.75 18.4375 237.299 18.4375 222V74C18.4375 58.7005 30.8459 46.25 46.0938 46.25H248.906C264.154 46.25 276.562 58.7005 276.562 74V222Z" fill="black"/>
<path d="M73.3619 93.906L66.2819 72.0205L59.1927 93.906H36.2656L54.8138 107.43L47.7245 129.306L66.2819 115.782L84.83 129.306L77.7408 107.43L96.2981 93.906H73.3619Z" fill="#FFFF00"/>
<path d="M117.308 75.7298L121.245 82.3065L121.908 74.666L129.357 72.9455L122.323 69.9485L122.996 62.308L117.981 68.0892L110.947 65.0922L114.874 71.669L109.859 77.4502L117.308 75.7298Z" fill="#FFFF00"/>
<path d="M137.038 95.941L138.116 103.535L141.693 96.755L149.225 98.0685L143.906 92.5648L147.473 85.7845L140.614 89.1608L135.286 83.657L136.374 91.2512L129.506 94.6275L137.038 95.941Z" fill="#FFFF00"/>
<path d="M143.784 125.911L149.804 121.184L142.162 121.453L139.544 114.256L137.442 121.628L129.809 121.906L136.151 126.189L134.049 133.561L140.069 128.834L146.402 133.117L143.784 125.911Z" fill="#FFFF00"/>
<path d="M122.24 143.699L122.59 136.04L117.815 142.024L110.671 139.323L114.865 145.724L110.09 151.718L117.465 149.683L121.669 156.094L122.019 148.435L129.394 146.4L122.24 143.699Z" fill="#FFFF00"/>
<path opacity="0.2" d="M248.906 46.25H46.0938C30.8183 46.25 18.4375 58.6728 18.4375 74V83.25C18.4375 67.9228 30.8183 55.5 46.0938 55.5H248.906C264.182 55.5 276.562 67.9228 276.562 83.25V74C276.562 58.6728 264.182 46.25 248.906 46.25Z" fill="white"/>
</svg>
