<svg width="295" height="295" viewBox="0 0 295 295" fill="none" xmlns="http://www.w3.org/2000/svg">
<path d="M9.21875 101.406H285.781V193.594H9.21875V101.406Z" fill="#F7DF4B"/>
<path d="M46.0938 36.875H248.906C269.261 36.875 285.781 53.395 285.781 73.75V110.625H9.21875V73.75C9.21875 53.395 25.7388 36.875 46.0938 36.875Z" fill="#3C883A"/>
<path d="M248.906 258.125L46.0938 258.125C25.7387 258.125 9.21875 241.605 9.21875 221.25V184.375L285.781 184.375V221.25C285.781 241.605 269.261 258.125 248.906 258.125Z" fill="#C92D25"/>
<path opacity="0.15" d="M248.906 36.875H46.0938C25.7295 36.875 9.21875 53.3858 9.21875 73.75V221.25C9.21875 241.614 25.7295 258.125 46.0938 258.125H248.906C269.27 258.125 285.781 241.614 285.781 221.25V73.75C285.781 53.3858 269.27 36.875 248.906 36.875ZM276.562 221.25C276.562 236.498 264.154 248.906 248.906 248.906H46.0938C30.8459 248.906 18.4375 236.498 18.4375 221.25V73.75C18.4375 58.5022 30.8459 46.0938 46.0938 46.0938H248.906C264.154 46.0938 276.562 58.5022 276.562 73.75V221.25Z" fill="black"/>
<path d="M147.5 202.812C178.048 202.812 202.812 178.048 202.812 147.5C202.812 116.952 178.048 92.1875 147.5 92.1875C116.952 92.1875 92.1875 116.952 92.1875 147.5C92.1875 178.048 116.952 202.812 147.5 202.812Z" fill="#1E44AA"/>
<path d="M147.5 100.567L145.444 106.891L153.925 132.99H142.614L141.342 136.898H177.599L182.983 132.99H158.037L147.5 100.558V100.567Z" fill="#F6DD4C"/>
<path d="M159.348 129.523L174.302 108.96L175.89 110.115L160.936 130.678L159.348 129.523Z" fill="#F6DD4C"/>
<path d="M192.137 132.999H185.481L163.273 149.132L159.78 138.373H155.668L166.869 172.861L172.252 176.77L164.546 153.04L192.137 132.999Z" fill="#F6DD4C"/>
<path d="M191.833 162.932L167.652 155.078L168.261 153.216L192.442 161.07L191.833 162.932Z" fill="#F6DD4C"/>
<path d="M175.082 185.472L173.026 179.148L150.818 163.015L159.963 156.368L158.691 152.46L129.357 173.773L127.301 180.098L147.49 165.43L175.072 185.472H175.082Z" fill="#F6DD4C"/>
<path d="M146.523 169.007H148.487V194.433H146.523V169.007Z" fill="#F6DD4C"/>
<path d="M119.918 185.472L125.301 181.563L133.783 155.465L142.928 162.112L146.256 159.696L116.922 138.383H110.266L130.455 153.05L119.918 185.481V185.472Z" fill="#F6DD4C"/>
<path d="M103.167 162.932L102.559 161.07L126.739 153.216L127.348 155.078L103.167 162.932Z" fill="#F6DD4C"/>
<path d="M102.863 132.999L108.247 136.908H135.691L132.197 147.666L135.525 150.081L146.726 115.594L144.67 109.27L136.963 132.999H102.863Z" fill="#F6DD4C"/>
<path d="M119.129 110.11L120.717 108.956L135.663 129.524L134.075 130.678L119.129 110.11Z" fill="#F6DD4C"/>
<path opacity="0.2" d="M248.906 46.0938H46.0938C30.8183 46.0938 18.4375 58.4745 18.4375 73.75V82.9688C18.4375 67.6933 30.8183 55.3125 46.0938 55.3125H248.906C264.182 55.3125 276.562 67.6933 276.562 82.9688V73.75C276.562 58.4745 264.182 46.0938 248.906 46.0938Z" fill="white"/>
</svg>
