<svg width="685" height="589" viewBox="0 0 685 589" fill="none" xmlns="http://www.w3.org/2000/svg">
<path d="M341.346 582.387C500.631 582.387 629.758 453.267 629.758 293.988C629.758 134.71 500.631 5.5896 341.346 5.5896C182.06 5.5896 52.9336 134.71 52.9336 293.988C52.9336 453.267 182.06 582.387 341.346 582.387Z" fill="#4882E7"/>
<path d="M363.149 560.584C509.297 560.584 627.774 438.807 627.774 288.587C627.774 138.367 509.297 16.5903 363.149 16.5903C217 16.5903 98.5234 138.367 98.5234 288.587C98.5234 438.807 217 560.584 363.149 560.584Z" fill="#5EA9EA"/>
<path d="M369.592 520.644C495.214 520.644 597.051 415.972 597.051 286.853C597.051 157.733 495.214 53.0614 369.592 53.0614C243.97 53.0614 142.133 157.733 142.133 286.853C142.133 415.972 243.97 520.644 369.592 520.644Z" fill="#88C8FF"/>
<path d="M512.104 109.185V140.364C512.104 143.109 509.874 145.339 507.129 145.339H450.636C447.89 145.339 445.66 147.569 445.66 150.314V162.514C445.66 165.259 447.89 167.489 450.636 167.489H472.321C475.066 167.489 477.296 169.719 477.296 172.464V187.826C477.296 190.571 479.526 192.801 482.272 192.801H542.977C545.722 192.801 547.952 190.571 547.952 187.826V172.464C547.952 169.719 550.182 167.489 552.928 167.489H599.896C588.607 144.526 574.365 123.268 557.645 104.22H517.069C514.324 104.22 512.094 106.45 512.094 109.195L512.104 109.185Z" fill="#B8FFB7"/>
<path d="M293.584 455.284H303.753C307.687 455.284 310.869 452.092 310.869 448.168V350.528C310.869 346.594 307.677 343.413 303.753 343.413H209.162C205.227 343.413 202.045 340.221 202.045 336.297V315.95C202.045 312.016 205.237 308.834 209.162 308.834H216.278C220.212 308.834 223.394 305.643 223.394 301.719V243.742C223.394 239.807 226.585 236.626 230.51 236.626H303.743C307.677 236.626 310.859 233.435 310.859 229.51V161.365C310.859 157.43 307.668 154.249 303.743 154.249H291.532C287.598 154.249 284.416 151.058 284.416 147.133V118.65C284.416 114.715 281.225 111.534 277.3 111.534H227.457C223.523 111.534 220.341 114.725 220.341 118.65V146.826C220.341 150.721 217.338 154.12 213.443 154.239C209.548 154.358 206.109 151.127 206.109 147.123V86.6088H222.522C226.327 86.6088 229.42 83.5167 229.42 79.711V45.232C229.42 41.4263 226.327 38.3342 222.522 38.3342H207.873C131.935 77.937 75.709 150.334 58.1367 236.626H90.1594C94.0941 236.626 97.2755 239.817 97.2755 243.742V301.719C97.2755 305.653 100.467 308.834 104.392 308.834H148.129C152.064 308.834 155.245 312.026 155.245 315.95V448.178C155.245 452.112 158.437 455.293 162.361 455.293H212.204C216.139 455.293 219.32 458.485 219.32 462.409V555.856C240.441 565.708 262.949 573.061 286.448 577.561V462.399C286.448 458.465 289.639 455.284 293.564 455.284H293.584Z" fill="#B8FFB7"/>
<path d="M296.467 93.1399H340.016C341.77 93.1399 343.197 90.91 343.197 88.1647V77.0252C343.197 74.28 344.624 72.0501 346.379 72.0501H364.972C366.726 72.0501 368.153 69.8202 368.153 67.075V7.08603C359.154 6.23372 350.036 5.77783 340.809 5.77783C324.624 5.77783 308.746 7.13559 293.285 9.71234V88.1548C293.285 90.9001 294.712 93.13 296.467 93.13V93.1399Z" fill="#B8FFB7"/>
<path d="M540.479 451.587C540.479 449.109 542.481 447.107 544.958 447.107H572.818C575.296 447.107 577.298 445.105 577.298 442.628V411.429C577.298 408.951 579.3 406.949 581.778 406.949H606.357C621.115 372.312 629.292 334.225 629.292 294.256C629.292 262.393 624.088 231.72 614.504 203.039H460.556C458.078 203.039 456.076 205.041 456.076 207.518V249.351C456.076 251.829 454.074 253.83 451.596 253.83H434.42C428.454 253.83 423.617 258.667 423.617 264.633V325.187C423.617 331.153 428.454 335.989 434.42 335.989C436.898 335.989 438.9 337.991 438.9 340.469V402.46C438.9 404.938 440.902 406.939 443.38 406.939H464.292C466.77 406.939 468.772 408.941 468.772 411.419V474.906C468.772 477.384 470.774 479.386 473.252 479.386H488.941C491.419 479.386 493.421 481.388 493.421 483.866V527.185C493.421 529.663 495.423 531.665 497.901 531.665H504.452C517.247 522.824 529.299 512.983 540.479 502.24V451.567V451.587Z" fill="#B8FFB7"/>
<path d="M495.462 92.0894H546.385C529.694 75.1224 510.923 60.1871 490.496 47.7394V87.1241C490.496 89.8694 492.726 92.0993 495.471 92.0993L495.462 92.0894Z" fill="#B8FFB7"/>
<path d="M364.239 82.595H360.483C357.735 82.595 355.508 84.8224 355.508 87.5701V98.7096C355.508 101.457 357.735 103.685 360.483 103.685H364.239C366.987 103.685 369.215 101.457 369.215 98.7096V87.5701C369.215 84.8224 366.987 82.595 364.239 82.595Z" fill="#B8FFB7"/>
<path d="M495.829 113.704H473.093C470.345 113.704 468.117 115.932 468.117 118.679V132.98C468.117 135.728 470.345 137.956 473.093 137.956H495.829C498.576 137.956 500.804 135.728 500.804 132.98V118.679C500.804 115.932 498.576 113.704 495.829 113.704Z" fill="#B8FFB7"/>
<path d="M517.061 105.221V136.4C517.061 139.145 514.831 141.375 512.086 141.375H455.593C452.847 141.375 450.617 143.605 450.617 146.35V158.55C450.617 161.295 452.847 163.525 455.593 163.525H477.278C480.023 163.525 482.253 165.755 482.253 168.5V183.862C482.253 186.607 484.483 188.837 487.229 188.837H547.934C550.679 188.837 552.909 186.607 552.909 183.862V168.5C552.909 165.755 555.139 163.525 557.885 163.525H604.853C593.564 140.562 579.322 119.304 562.602 100.256H522.026C519.281 100.256 517.051 102.486 517.051 105.231L517.061 105.221Z" fill="#8CF065"/>
<path d="M298.541 451.319H308.71C312.644 451.319 315.826 448.128 315.826 444.203V346.564C315.826 342.63 312.635 339.448 308.71 339.448H214.119C210.184 339.448 207.002 336.257 207.002 332.333V311.986C207.002 308.052 210.194 304.87 214.119 304.87H221.235C225.169 304.87 228.351 301.679 228.351 297.754V239.777C228.351 235.843 231.542 232.661 235.467 232.661H308.7C312.635 232.661 315.816 229.47 315.816 225.546V157.4C315.816 153.466 312.625 150.285 308.7 150.285H296.489C292.555 150.285 289.373 147.093 289.373 143.169V114.686C289.373 110.751 286.182 107.57 282.257 107.57H232.414C228.48 107.57 225.298 110.761 225.298 114.686V142.861C225.298 146.756 222.295 150.156 218.4 150.275C214.505 150.394 211.066 147.163 211.066 143.159V82.6446H227.479C231.285 82.6446 234.377 79.5525 234.377 75.7468V41.2678C234.377 37.4621 231.285 34.37 227.479 34.37H212.83C136.892 73.9728 80.6661 146.37 63.0938 232.661H95.1164C99.0511 232.661 102.233 235.853 102.233 239.777V297.754C102.233 301.689 105.424 304.87 109.349 304.87H153.086C157.021 304.87 160.202 308.061 160.202 311.986V444.213C160.202 448.148 163.394 451.329 167.318 451.329H217.161C221.096 451.329 224.277 454.52 224.277 458.445V551.892C245.398 561.743 267.906 569.097 291.405 573.596V458.435C291.405 454.501 294.596 451.319 298.521 451.319H298.541Z" fill="#8CF065"/>
<path d="M301.424 89.1756H344.973C346.727 89.1756 348.154 86.9457 348.154 84.2005V73.061C348.154 70.3157 349.582 68.0858 351.336 68.0858H369.929C371.683 68.0858 373.11 65.856 373.11 63.1107V3.1218C364.111 2.26949 354.993 1.8136 345.766 1.8136C329.581 1.8136 313.703 3.17135 298.242 5.74811V84.1906C298.242 86.9358 299.669 89.1657 301.424 89.1657V89.1756Z" fill="#8CF065"/>
<path d="M545.436 447.623C545.436 445.145 547.438 443.143 549.915 443.143H577.775C580.253 443.143 582.255 441.141 582.255 438.663V407.465C582.255 404.987 584.257 402.985 586.735 402.985H611.314C626.072 368.348 634.249 330.261 634.249 290.292C634.249 258.429 629.045 227.756 619.461 199.074H465.513C463.035 199.074 461.033 201.076 461.033 203.554V245.387C461.033 247.864 459.031 249.866 456.553 249.866H439.377C433.411 249.866 428.574 254.703 428.574 260.669V321.223C428.574 327.189 433.411 332.025 439.377 332.025C441.855 332.025 443.857 334.027 443.857 336.505V398.496C443.857 400.973 445.859 402.975 448.337 402.975H469.249C471.727 402.975 473.729 404.977 473.729 407.455V470.942C473.729 473.42 475.731 475.422 478.209 475.422H493.898C496.376 475.422 498.378 477.424 498.378 479.901V523.221C498.378 525.698 500.38 527.7 502.858 527.7H509.409C522.204 518.86 534.256 509.019 545.436 498.276V447.603V447.623Z" fill="#8CF065"/>
<path d="M500.419 88.1251H551.342C534.651 71.1582 515.88 56.2229 495.453 43.7751V83.1599C495.453 85.9052 497.683 88.135 500.428 88.135L500.419 88.1251Z" fill="#8CF065"/>
<path d="M369.196 78.6307H365.44C362.692 78.6307 360.465 80.8582 360.465 83.6059V94.7454C360.465 97.4931 362.692 99.7205 365.44 99.7205H369.196C371.944 99.7205 374.172 97.4931 374.172 94.7454V83.6059C374.172 80.8582 371.944 78.6307 369.196 78.6307Z" fill="#8CF065"/>
<path d="M500.786 109.74H478.05C475.302 109.74 473.074 111.968 473.074 114.715V129.016C473.074 131.764 475.302 133.991 478.05 133.991H500.786C503.533 133.991 505.761 131.764 505.761 129.016V114.715C505.761 111.968 503.533 109.74 500.786 109.74Z" fill="#8CF065"/>
<path d="M549.705 87.1241C494.253 31.6644 420.514 1.12976 342.088 1.12976C263.662 1.12976 189.923 31.6743 134.471 87.1241C79.0185 142.574 48.4727 216.309 48.4727 294.732C48.4727 373.154 79.0185 446.889 134.471 502.339C189.923 557.789 263.662 588.333 342.088 588.333C420.514 588.333 494.253 557.789 549.705 502.339C605.157 446.889 635.703 373.154 635.703 294.732C635.703 216.309 605.157 142.574 549.705 87.1241ZM612.908 295.158C612.908 444.253 491.606 565.539 342.514 565.539C193.422 565.539 72.1205 444.243 72.1205 295.158C72.1205 146.072 193.412 24.7666 342.514 24.7666C491.616 24.7666 612.908 146.063 612.908 295.148V295.158Z" fill="#393939"/>
<path d="M337.641 327.625C349.019 328.804 363.202 329.339 378.841 327.853C389.476 326.842 395.224 337.347 387.018 342.768C372.34 352.461 351.507 358.794 328.979 342.263C321.307 336.634 327.234 326.545 337.641 327.625Z" fill="#393939"/>
<path d="M58.0087 319.964C57.8204 316.456 58.1474 312.947 58.0186 309.439C57.9789 308.289 57.8997 307.15 57.7807 306C57.5032 304.365 57.2158 302.73 56.9185 301.094C56.8491 300.718 56.7896 300.341 56.7202 299.964C44.2125 301.491 31.4371 305.653 21.0503 314.692C20.5349 315.148 20.0295 315.603 19.524 316.069C3.77533 330.826 -2.47855 353.997 0.881298 385.067C1.65436 392.212 8.30468 397.227 15.3812 395.959H15.4109C21.8036 394.799 26.2239 388.902 25.5103 382.441C22.983 359.557 26.6699 343.333 36.5116 334.107C36.7594 333.869 37.017 333.641 37.2747 333.423C42.9637 328.448 50.4961 325.841 58.4448 324.711C58.2366 323.195 58.088 321.629 57.9889 319.964H58.0087Z" fill="#393939"/>
<path d="M626.842 319.964C627.031 316.456 626.704 312.947 626.832 309.439C626.872 308.289 626.951 307.15 627.07 306C627.348 304.365 627.635 302.73 627.933 301.094C628.002 300.718 628.061 300.341 628.131 299.964C640.639 301.491 653.414 305.653 663.801 314.692C664.316 315.148 664.821 315.603 665.327 316.069C681.076 330.826 687.33 353.997 683.97 385.067C683.197 392.212 676.546 397.227 669.47 395.959H669.44C663.047 394.799 658.627 388.902 659.341 382.441C661.868 359.557 658.181 343.333 648.339 334.107C648.092 333.869 647.834 333.641 647.576 333.423C641.887 328.448 634.355 325.841 626.406 324.711C626.614 323.195 626.763 321.629 626.862 319.964H626.842Z" fill="#393939"/>
<path d="M455.622 192.95C441.053 192.95 427.99 204.159 419.15 221.859C417.693 224.763 419.328 228.271 422.47 229.104L435.354 232.533C440.349 233.861 440.508 240.897 435.572 242.453L412.757 249.628C410.884 250.213 409.516 251.819 409.199 253.751C408 261.026 407.355 268.706 407.355 276.655C407.355 322.878 428.972 360.35 455.622 360.35C482.273 360.35 503.889 322.878 503.889 276.655C503.889 230.432 482.273 192.96 455.622 192.96V192.95Z" fill="#393939"/>
<path d="M256.408 192.95C241.838 192.95 228.775 204.159 219.935 221.859C218.478 224.763 220.113 228.271 223.255 229.104L236.139 232.533C241.135 233.861 241.293 240.897 236.357 242.453L213.542 249.628C211.669 250.213 210.301 251.819 209.984 253.751C208.785 261.026 208.141 268.706 208.141 276.655C208.141 322.878 229.757 360.35 256.408 360.35C283.058 360.35 304.674 322.878 304.674 276.655C304.674 230.432 283.058 192.96 256.408 192.96V192.95Z" fill="#393939"/>
<path d="M281.88 233.534C285.164 233.534 287.827 230.871 287.827 227.587C287.827 224.303 285.164 221.641 281.88 221.641C278.596 221.641 275.934 224.303 275.934 227.587C275.934 230.871 278.596 233.534 281.88 233.534Z" fill="white"/>
<path d="M268.501 222.632C273.701 222.632 277.917 218.417 277.917 213.217C277.917 208.017 273.701 203.802 268.501 203.802C263.301 203.802 259.086 208.017 259.086 213.217C259.086 218.417 263.301 222.632 268.501 222.632Z" fill="white"/>
<path d="M481.091 233.534C484.375 233.534 487.038 230.871 487.038 227.587C487.038 224.303 484.375 221.641 481.091 221.641C477.807 221.641 475.145 224.303 475.145 227.587C475.145 230.871 477.807 233.534 481.091 233.534Z" fill="white"/>
<path d="M467.712 222.632C472.912 222.632 477.128 218.417 477.128 213.217C477.128 208.017 472.912 203.802 467.712 203.802C462.512 203.802 458.297 208.017 458.297 213.217C458.297 218.417 462.512 222.632 467.712 222.632Z" fill="white"/>
<path d="M587.816 45.5889H485.376C469.327 45.5889 456.316 58.5985 456.316 74.6468C456.316 90.695 469.327 103.705 485.376 103.705H587.816C603.865 103.705 616.876 90.695 616.876 74.6468C616.876 58.5985 603.865 45.5889 587.816 45.5889Z" fill="white"/>
<path d="M186.418 455.888H83.9772C67.9282 455.888 54.918 468.898 54.918 484.946C54.918 500.994 67.9282 514.004 83.9772 514.004H186.418C202.467 514.004 215.477 500.994 215.477 484.946C215.477 468.898 202.467 455.888 186.418 455.888Z" fill="white"/>
<path d="M95.234 529.227H22.5264C13.5933 529.227 6.35156 536.468 6.35156 545.401C6.35156 554.333 13.5933 561.575 22.5264 561.575H95.234C104.167 561.575 111.409 554.333 111.409 545.401C111.409 536.468 104.167 529.227 95.234 529.227Z" fill="white"/>
<path d="M163.622 529.227H149.39C140.457 529.227 133.215 536.468 133.215 545.401C133.215 554.333 140.457 561.575 149.39 561.575H163.622C172.555 561.575 179.797 554.333 179.797 545.401C179.797 536.468 172.555 529.227 163.622 529.227Z" fill="white"/>
<path d="M515.465 0H400.14C391.207 0 383.965 7.2414 383.965 16.1741C383.965 25.1068 391.207 32.3482 400.14 32.3482H515.465C524.398 32.3482 531.64 25.1068 531.64 16.1741C531.64 7.2414 524.398 0 515.465 0Z" fill="white"/>
<path d="M628.452 0H583.495C574.562 0 567.32 7.2414 567.32 16.1741C567.32 25.1068 574.562 32.3482 583.495 32.3482H628.452C637.385 32.3482 644.627 25.1068 644.627 16.1741C644.627 7.2414 637.385 0 628.452 0Z" fill="white"/>
</svg>
