<svg width="295" height="295" viewBox="0 0 295 295" fill="none" xmlns="http://www.w3.org/2000/svg">
<path d="M9.21875 101.406H285.781V193.594H9.21875V101.406Z" fill="white"/>
<path d="M46.0938 36.875H248.906C269.261 36.875 285.781 53.395 285.781 73.75V110.625H9.21875V73.75C9.21875 53.395 25.7388 36.875 46.0938 36.875Z" fill="#E06535"/>
<path d="M248.906 258.125L46.0938 258.125C25.7387 258.125 9.21875 241.605 9.21875 221.25V184.375L285.781 184.375V221.25C285.781 241.605 269.261 258.125 248.906 258.125Z" fill="#2C6837"/>
<path opacity="0.15" d="M248.906 36.875H46.0938C25.7295 36.875 9.21875 53.3858 9.21875 73.75V221.25C9.21875 241.614 25.7295 258.125 46.0938 258.125H248.906C269.27 258.125 285.781 241.614 285.781 221.25V73.75C285.781 53.3858 269.27 36.875 248.906 36.875ZM276.562 221.25C276.562 236.498 264.154 248.906 248.906 248.906H46.0938C30.8459 248.906 18.4375 236.498 18.4375 221.25V73.75C18.4375 58.5022 30.8459 46.0938 46.0938 46.0938H248.906C264.154 46.0938 276.562 58.5022 276.562 73.75V221.25Z" fill="black"/>
<path d="M147.5 113.317C128.62 113.317 113.316 128.62 113.316 147.5C113.316 166.38 128.62 181.683 147.5 181.683C166.38 181.683 181.683 166.38 181.683 147.5C181.683 128.62 166.38 113.317 147.5 113.317ZM175.534 151.197C175.442 151.897 175.921 152.533 176.612 152.644C176.308 154.359 175.875 156.027 175.294 157.622C174.64 157.364 173.893 157.678 173.625 158.332C173.358 158.987 173.662 159.724 174.298 160.01C173.93 160.793 173.533 161.549 173.1 162.296L158.249 152.441L152.791 150.146C152.911 149.906 153.012 149.657 153.105 149.399L158.59 151.63L176.059 155.161L159.161 149.482L153.298 148.68C153.353 148.422 153.381 148.155 153.4 147.878L159.281 148.615L177.073 147.509L159.281 146.403L153.4 147.14C153.381 146.864 153.353 146.597 153.298 146.338L159.161 145.536L176.059 139.858L158.59 143.388L153.105 145.619C153.022 145.361 152.911 145.112 152.791 144.873L158.249 142.577L173.1 132.722C173.533 133.469 173.93 134.225 174.298 135.009C173.653 135.294 173.349 136.032 173.625 136.686C173.893 137.341 174.64 137.654 175.294 137.396C175.875 138.991 176.317 140.66 176.612 142.374C175.921 142.485 175.442 143.121 175.534 143.822C175.626 144.522 176.253 145.011 176.953 144.937C177.027 145.785 177.073 146.643 177.073 147.509C177.073 148.376 177.027 149.233 176.953 150.081C176.262 150.008 175.626 150.496 175.534 151.197ZM170.15 128.5C169.606 128.943 169.505 129.735 169.938 130.289C170.362 130.842 171.155 130.952 171.726 130.547C172.215 131.247 172.676 131.976 173.1 132.722L157.152 140.66L152.432 144.237C152.284 144.015 152.118 143.803 151.934 143.6L156.617 139.968L168.417 126.601L155.05 138.401L151.417 143.084C151.215 142.909 151.003 142.734 150.781 142.586L154.358 137.866L162.296 121.909C163.042 122.342 163.771 122.803 164.471 123.292C164.056 123.854 164.167 124.647 164.729 125.08C165.292 125.504 166.085 125.412 166.518 124.868C167.172 125.421 167.818 126.002 168.426 126.61C169.035 127.219 169.615 127.855 170.168 128.519L170.15 128.5ZM150.081 118.055C150.007 118.747 150.496 119.383 151.196 119.475C151.897 119.567 152.533 119.088 152.644 118.396C154.358 118.701 156.027 119.134 157.622 119.715C157.364 120.369 157.677 121.116 158.332 121.383C158.986 121.651 159.724 121.346 160.009 120.71C160.793 121.079 161.549 121.475 162.296 121.909L152.441 136.76L150.145 142.218C149.906 142.098 149.657 141.996 149.399 141.904L151.63 136.419L155.16 118.95L149.482 135.848L148.68 141.711C148.421 141.655 148.154 141.628 147.878 141.609L148.615 135.728L147.509 117.935L146.402 135.728L147.14 141.609C146.863 141.628 146.596 141.655 146.338 141.711L145.536 135.848L139.857 118.95L143.388 136.419L145.619 141.904C145.361 141.987 145.112 142.098 144.872 142.218L142.577 136.76L132.722 121.909C133.469 121.475 134.225 121.079 135.008 120.71C135.294 121.356 136.031 121.66 136.686 121.383C137.34 121.116 137.654 120.369 137.396 119.715C138.991 119.134 140.659 118.691 142.374 118.396C142.485 119.088 143.121 119.567 143.821 119.475C144.522 119.383 145.01 118.756 144.937 118.055C145.785 117.982 146.642 117.935 147.509 117.935C148.375 117.935 149.233 117.982 150.081 118.055ZM121.383 158.323C121.115 157.668 120.369 157.355 119.714 157.613C119.133 156.018 118.691 154.35 118.396 152.635C119.087 152.524 119.567 151.888 119.475 151.188C119.382 150.487 118.755 149.998 118.055 150.072C117.981 149.224 117.935 148.367 117.935 147.5C117.935 146.633 117.981 145.776 118.055 144.928C118.746 145.002 119.382 144.513 119.475 143.813C119.567 143.112 119.087 142.476 118.396 142.365C118.7 140.65 119.133 138.982 119.714 137.387C120.369 137.645 121.115 137.332 121.383 136.677C121.65 136.023 121.346 135.285 120.71 134.999C121.079 134.216 121.475 133.46 121.908 132.713L136.76 142.568L142.217 144.863C142.097 145.103 141.996 145.352 141.904 145.61L136.419 143.379L118.949 139.848L135.847 145.527L141.71 146.329C141.655 146.587 141.627 146.855 141.609 147.131L135.727 146.394L117.935 147.5L135.727 148.606L141.609 147.869C141.627 148.145 141.655 148.413 141.71 148.671L135.847 149.473L118.949 155.152L136.419 151.621L141.904 149.39C141.987 149.648 142.097 149.897 142.217 150.137L136.76 152.432L121.908 162.287C121.475 161.54 121.079 160.784 120.71 160.001C121.355 159.715 121.659 158.977 121.383 158.323ZM128.5 124.859C128.942 125.403 129.735 125.504 130.288 125.071C130.841 124.647 130.952 123.854 130.546 123.282C131.247 122.794 131.975 122.324 132.722 121.9L140.659 137.857L144.236 142.577C144.015 142.725 143.803 142.891 143.6 143.075L139.968 138.392L126.601 126.592L138.401 139.959L143.084 143.591C142.909 143.794 142.733 144.006 142.586 144.227L137.866 140.65L121.908 132.713C122.342 131.966 122.802 131.238 123.291 130.538C123.853 130.952 124.646 130.842 125.08 130.279C125.504 129.717 125.411 128.924 124.868 128.491C125.421 127.836 126.001 127.191 126.61 126.583C127.218 125.974 127.854 125.393 128.518 124.84L128.5 124.859ZM124.858 166.509C125.402 166.067 125.504 165.274 125.07 164.721C124.646 164.168 123.853 164.057 123.282 164.463C122.793 163.762 122.323 163.034 121.899 162.287L137.857 154.35L142.577 150.773C142.724 150.994 142.89 151.206 143.075 151.409L138.391 155.041L126.591 168.408L139.959 156.608L143.591 151.925C143.794 152.1 144.006 152.275 144.227 152.423L140.65 157.143L132.713 173.1C131.966 172.667 131.238 172.206 130.537 171.718C130.952 171.155 130.841 170.363 130.279 169.929C129.717 169.505 128.924 169.597 128.49 170.141C127.836 169.588 127.191 169.007 126.582 168.399C125.974 167.79 125.393 167.154 124.84 166.491L124.858 166.509ZM144.927 176.954C145.001 176.263 144.513 175.626 143.812 175.534C143.111 175.442 142.475 175.921 142.365 176.613C140.65 176.309 138.981 175.875 137.387 175.295C137.645 174.64 137.331 173.893 136.677 173.626C136.022 173.359 135.285 173.663 134.999 174.299C134.215 173.93 133.459 173.534 132.713 173.1L142.567 158.249L144.863 152.792C145.103 152.911 145.352 153.013 145.61 153.105L143.379 158.59L139.848 176.06L145.527 159.162L146.329 153.299C146.587 153.354 146.854 153.382 147.131 153.4L146.393 159.282L147.5 177.074L148.606 159.282L147.868 153.4C148.145 153.382 148.412 153.354 148.67 153.299L149.472 159.162L155.151 176.06L151.62 158.59L149.389 153.105C149.647 153.022 149.896 152.911 150.136 152.792L152.432 158.249L162.286 173.1C161.54 173.534 160.784 173.93 160 174.299C159.714 173.654 158.977 173.349 158.322 173.626C157.668 173.893 157.354 174.64 157.612 175.295C156.018 175.875 154.349 176.318 152.634 176.613C152.524 175.921 151.888 175.442 151.187 175.534C150.486 175.626 149.998 176.253 150.072 176.954C149.223 177.028 148.366 177.074 147.5 177.074C146.633 177.074 145.776 177.028 144.927 176.954ZM166.509 170.15C166.066 169.607 165.273 169.505 164.72 169.938C164.167 170.363 164.056 171.155 164.462 171.727C163.761 172.215 163.033 172.676 162.286 173.1L154.349 157.152L150.772 152.432C150.993 152.285 151.205 152.119 151.408 151.934L155.04 156.617L168.408 168.417L156.608 155.05L151.925 151.418C152.1 151.215 152.275 151.003 152.422 150.782L157.142 154.359L173.1 162.296C172.667 163.043 172.206 163.771 171.717 164.472C171.155 164.057 170.362 164.168 169.929 164.73C169.505 165.292 169.597 166.085 170.141 166.518C169.588 167.173 169.007 167.818 168.398 168.427C167.79 169.035 167.154 169.616 166.49 170.169L166.509 170.15Z" fill="#2C2C6B"/>
<path opacity="0.2" d="M248.906 46.0938H46.0938C30.8183 46.0938 18.4375 58.4745 18.4375 73.75V82.9688C18.4375 67.6933 30.8183 55.3125 46.0938 55.3125H248.906C264.182 55.3125 276.562 67.6933 276.562 82.9688V73.75C276.562 58.4745 264.182 46.0938 248.906 46.0938Z" fill="white"/>
</svg>
