<svg width="304" height="304" viewBox="0 0 304 304" fill="none" xmlns="http://www.w3.org/2000/svg">
<path d="M256.5 38H47.5C26.5132 38 9.5 55.0132 9.5 76V228C9.5 248.987 26.5132 266 47.5 266H256.5C277.487 266 294.5 248.987 294.5 228V76C294.5 55.0132 277.487 38 256.5 38Z" fill="white"/>
<path opacity="0.15" d="M256.5 38H47.5C26.5145 38 9.5 55.0145 9.5 76V228C9.5 248.986 26.5145 266 47.5 266H256.5C277.486 266 294.5 248.986 294.5 228V76C294.5 55.0145 277.486 38 256.5 38ZM285 228C285 243.713 272.213 256.5 256.5 256.5H47.5C31.787 256.5 19 243.713 19 228V76C19 60.287 31.787 47.5 47.5 47.5H256.5C272.213 47.5 285 60.287 285 76V228Z" fill="black"/>
<path d="M152 209C183.48 209 209 183.48 209 152C209 120.52 183.48 95 152 95C120.52 95 95 120.52 95 152C95 183.48 120.52 209 152 209Z" fill="#AE232F"/>
<path opacity="0.2" d="M256.5 47.5H47.5C31.7585 47.5 19 60.2585 19 76V85.5C19 69.7585 31.7585 57 47.5 57H256.5C272.242 57 285 69.7585 285 85.5V76C285 60.2585 272.242 47.5 256.5 47.5Z" fill="white"/>
</svg>
