<svg width="234" height="234" viewBox="0 0 234 234" fill="none" xmlns="http://www.w3.org/2000/svg">
<path fill-rule="evenodd" clip-rule="evenodd" d="M117.397 0C128.801 0 137.676 8.87531 137.676 19.6392C137.711 22.312 137.21 24.9647 136.204 27.4409C135.197 29.9171 133.704 32.1665 131.814 34.0567C129.924 35.9468 127.675 37.4393 125.198 38.4461C122.722 39.4529 120.07 39.9536 117.397 39.9187C106.625 39.9187 97.1172 31.0515 97.1172 19.6392C97.1172 8.87531 106.625 0 117.397 0ZM117.397 12.6767C115.555 12.6936 113.793 13.4323 112.489 14.7341C111.186 16.036 110.445 17.7971 110.426 19.6392C110.426 24.0809 113.595 27.242 117.397 27.242C121.198 27.242 124.367 24.0728 124.367 19.6392C124.348 17.7971 123.607 16.036 122.304 14.7341C121.001 13.4323 119.239 12.6936 117.397 12.6767Z" fill="#FBE02F"/>
<path fill-rule="evenodd" clip-rule="evenodd" d="M71.1404 46.8973C81.2802 58.3015 94.5891 65.9044 106.626 66.5366V124.206H93.9569V76.6764C71.7807 71.6105 52.7656 46.2652 52.7656 46.2652L80.6479 19.6472C80.6479 19.6472 94.5891 43.096 118.03 43.096C140.838 43.096 154.787 20.2876 154.787 20.2876L182.662 46.2733C170.633 58.9419 157.949 72.2508 140.838 76.6845V88.0886H128.169V66.5447C138.309 66.5447 149.713 60.8385 164.919 46.2733L156.052 38.0302C144.648 50.0666 131.339 55.7727 118.03 55.1405C104.721 55.1405 90.7796 49.4344 79.3754 38.0302L71.1404 46.8973Z" fill="#FBE02F"/>
<path fill-rule="evenodd" clip-rule="evenodd" d="M116.764 233.839C105.992 233.839 97.1172 224.955 97.1172 213.559C97.1428 208.356 99.2209 203.374 102.9 199.695C106.579 196.016 111.562 193.937 116.764 193.912C128.169 193.912 137.044 202.779 137.044 213.559C137.078 216.232 136.576 218.884 135.569 221.36C134.562 223.835 133.069 226.084 131.179 227.974C129.29 229.864 127.041 231.357 124.565 232.364C122.089 233.371 119.437 233.872 116.764 233.839ZM116.764 220.522C120.566 220.522 123.735 217.353 123.735 213.559C123.735 209.766 120.566 206.581 116.764 206.581C112.963 206.581 109.794 209.766 109.794 213.559C109.794 217.353 112.963 220.522 116.764 220.522Z" fill="#00AAE7"/>
<path fill-rule="evenodd" clip-rule="evenodd" d="M163.647 186.949C153.515 175.537 139.574 167.302 128.169 167.302V109.625H140.838V157.146C163.014 162.228 181.389 186.941 181.389 186.941L154.147 213.551C154.147 213.551 139.574 190.743 116.757 190.743C93.9407 190.743 79.3673 213.551 79.3673 213.551L52.1172 187.573C63.5214 174.897 76.8303 161.58 93.9407 157.146V145.75H106.609V167.294C96.4696 167.294 85.0653 172.36 69.8597 186.941L78.0948 195.808C90.1312 183.764 102.808 178.066 116.749 178.066C130.058 178.698 143.991 184.396 155.403 195.176L163.647 186.949Z" fill="#00AAE7"/>
<path fill-rule="evenodd" clip-rule="evenodd" d="M0.169671 116.595C0.169671 105.831 9.03696 96.3157 20.4493 96.3157C31.2212 96.3157 40.7207 105.831 40.7207 116.595C40.7207 128.008 31.2131 136.875 20.4493 136.875C17.7765 136.91 15.1237 136.409 12.6476 135.402C10.1714 134.395 7.92186 132.903 6.03174 131.013C4.14162 129.123 2.64916 126.873 1.64236 124.397C0.635562 121.921 0.134814 119.268 0.169671 116.595ZM13.4787 116.595C13.4787 120.397 16.6479 123.574 20.4493 123.574C24.2507 123.574 27.4198 120.388 27.4198 116.595C27.4198 112.802 24.2507 109.633 20.4493 109.633C18.6059 109.645 16.8414 110.383 15.5372 111.686C14.2329 112.988 13.4935 114.752 13.4787 116.595Z" fill="#66F065"/>
<path fill-rule="evenodd" clip-rule="evenodd" d="M47.059 163.484C59.1035 152.721 66.7063 139.403 66.7063 128.007H124.376V140.036H76.8461C71.7803 162.844 47.059 181.227 47.059 181.227L20.4492 153.353C20.4492 153.353 43.2576 139.403 43.2576 116.595C43.2576 93.1463 20.4492 79.2133 20.4492 79.2133L46.4349 51.9631C59.1035 63.3754 72.4125 76.6763 76.8461 93.7867H88.8825V105.831H66.7063C66.7063 95.6833 61.6405 84.2872 47.059 69.0735L38.824 77.9407C50.2282 89.9772 55.9343 102.662 55.9343 116.595C55.3021 129.272 49.596 143.853 38.824 154.617L47.059 163.484Z" fill="#66F065"/>
<path fill-rule="evenodd" clip-rule="evenodd" d="M234.001 117.227C233.973 122.43 231.895 127.411 228.216 131.09C224.537 134.768 219.556 136.847 214.354 136.875C202.941 136.875 194.074 128.008 194.074 117.227C194.074 105.831 202.941 96.9641 214.354 96.9641C225.118 96.9641 234.001 105.831 234.001 117.227ZM221.324 117.227C221.324 113.426 218.155 110.265 214.362 110.265C210.569 110.265 207.375 113.426 207.375 117.227C207.375 121.045 210.56 124.206 214.354 124.206C218.147 124.206 221.324 121.045 221.324 117.227Z" fill="#C61E80"/>
<path fill-rule="evenodd" clip-rule="evenodd" d="M187.726 70.3381C175.698 80.4779 168.095 94.4109 167.463 105.823H110.426V93.7787H157.315C163.013 70.9703 187.726 52.5874 187.726 52.5874L214.352 79.8375C214.352 79.8375 190.904 94.4028 190.904 117.219C190.904 140.036 214.352 154.609 214.352 154.609L188.375 181.851C175.698 170.455 162.381 157.138 157.315 140.028H145.911V127.999H167.463C168.095 137.499 173.161 148.911 187.726 164.757L195.978 155.874C183.933 143.845 178.235 131.16 178.867 117.211C178.867 104.551 184.565 89.9692 195.978 79.1972L187.726 70.3381Z" fill="#C61E80"/>
</svg>
