<svg width="570" height="226" viewBox="0 0 570 226" fill="none" xmlns="http://www.w3.org/2000/svg">
<path d="M126.708 99H351.292C386.477 99 415 127.43 415 162.5C415 197.57 386.477 226 351.292 226H126.708C91.523 226 63 197.57 63 162.5C63 127.43 91.523 99 126.708 99Z" fill="white"/>
<path d="M284.159 0H534.841C554.259 0 570 15.4462 570 34.5C570 53.5538 554.259 69 534.841 69H284.159C264.741 69 249 53.5538 249 34.5C249 15.4462 264.741 0 284.159 0Z" fill="white"/>
<path d="M35.9878 0H136.012C155.888 0 172 15.4462 172 34.5C172 53.5538 155.888 69 136.012 69H35.9878C16.1124 69 0 53.5538 0 34.5C0 15.4462 16.1124 0 35.9878 0Z" fill="white"/>
</svg>
