<svg width="295" height="295" viewBox="0 0 295 295" fill="none" xmlns="http://www.w3.org/2000/svg">
<path d="M248.906 36.875H46.0938C25.7282 36.875 9.21875 53.3845 9.21875 73.75V221.25C9.21875 241.616 25.7282 258.125 46.0938 258.125H248.906C269.272 258.125 285.781 241.616 285.781 221.25V73.75C285.781 53.3845 269.272 36.875 248.906 36.875Z" fill="#2455B2"/>
<path opacity="0.15" d="M248.906 36.875H46.0938C25.7295 36.875 9.21875 53.3858 9.21875 73.75V221.25C9.21875 241.614 25.7295 258.125 46.0938 258.125H248.906C269.27 258.125 285.781 241.614 285.781 221.25V73.75C285.781 53.3858 269.27 36.875 248.906 36.875ZM276.562 221.25C276.562 236.498 264.154 248.906 248.906 248.906H46.0938C30.8459 248.906 18.4375 236.498 18.4375 221.25V73.75C18.4375 58.5022 30.8459 46.0938 46.0938 46.0938H248.906C264.154 46.0938 276.562 58.5022 276.562 73.75V221.25Z" fill="black"/>
<path opacity="0.2" d="M248.906 46.0938H46.0938C30.8183 46.0938 18.4375 58.4745 18.4375 73.75V82.9688C18.4375 67.6933 30.8183 55.3125 46.0938 55.3125H248.906C264.182 55.3125 276.562 67.6933 276.562 82.9688V73.75C276.562 58.4745 264.182 46.0938 248.906 46.0938Z" fill="white"/>
<path d="M255 146.509C255.001 156.892 251.922 167.043 246.153 175.676C240.383 184.31 232.182 191.039 222.587 195.013C212.992 198.986 202.433 200.026 192.247 198C182.06 195.974 172.704 190.973 165.36 183.631L164.931 183.167L112.546 124.033C108.117 119.686 102.503 116.744 96.4077 115.576C90.3125 114.408 84.0079 115.065 78.2851 117.466C72.5623 119.867 67.6762 123.904 64.2402 129.071C60.8041 134.238 58.971 140.304 58.971 146.509C58.971 152.714 60.8041 158.78 64.2402 163.947C67.6762 169.114 72.5623 173.151 78.2851 175.552C84.0079 177.953 90.3125 178.61 96.4077 177.442C102.503 176.274 108.117 173.332 112.546 168.985L115.242 165.94C117.088 163.852 137.899 145.508 140.682 145.336C143.465 145.165 143.261 148.156 145.349 150.002C147.438 151.848 149.845 151.887 150.017 154.668C175.759 137.083 132.84 177.772 130.994 179.86L128.062 183.167L127.633 183.631C120.29 190.971 110.934 195.97 100.748 197.995C90.5631 200.019 80.006 198.979 70.4119 195.006C60.8179 191.033 52.6178 184.304 46.8486 175.672C41.0793 167.04 38 156.891 38 146.509C38 136.127 41.0793 125.978 46.8486 117.346C52.6178 108.714 60.8179 101.985 70.4119 98.012C80.006 94.0386 90.5631 92.9986 100.748 95.0233C110.934 97.0481 120.29 102.047 127.633 109.387L128.062 109.851L180.448 168.985C184.876 173.332 190.491 176.274 196.586 177.442C202.681 178.61 208.986 177.953 214.709 175.552C220.431 173.151 225.317 169.114 228.754 163.947C232.19 158.78 234.023 152.714 234.023 146.509C234.023 140.304 232.19 134.238 228.754 129.071C225.317 123.904 220.431 119.867 214.709 117.466C208.986 115.065 202.681 114.408 196.586 115.576C190.491 116.744 184.876 119.686 180.448 124.033L177.752 127.078C176.838 128.112 155.925 145.903 154.684 146.509C153.444 147.115 136.535 158.814 154.684 145.336C138.298 160.586 151.322 145.785 150.017 145.336C148.711 144.887 146.384 150.916 145.349 150.002C144.315 149.088 133.834 159.765 148.915 143.824C148.309 142.584 148.085 142.877 148 141.5C129.298 166.072 140.682 139.5 140.682 143.824C142.302 144.716 161.086 114.192 162 113.158L164.931 109.851L165.36 109.387C172.704 102.045 182.06 97.044 192.247 95.018C202.433 92.992 212.992 94.0316 222.587 98.0052C232.182 101.979 240.383 108.708 246.153 117.342C251.922 125.975 255.001 136.126 255 146.509Z" fill="white"/>
</svg>
