<svg width="277" height="222" viewBox="0 0 277 222" fill="none" xmlns="http://www.w3.org/2000/svg">
<g clip-path="url(#clip0_252_39)">
<path d="M239.69 0H36.88C16.51 0 0 16.51 0 36.88V184.38C0 204.75 16.51 221.26 36.88 221.26H239.69C260.06 221.26 276.57 204.75 276.57 184.38V36.88C276.57 16.51 260.06 0 239.69 0Z" fill="#3058A8"/>
<path opacity="0.15" d="M239.69 0H36.88C16.51 0 0 16.51 0 36.88V184.38C0 204.74 16.51 221.26 36.88 221.26H239.69C260.05 221.26 276.57 204.75 276.57 184.38V36.88C276.57 16.52 260.06 0 239.69 0ZM267.35 184.38C267.35 199.63 254.94 212.04 239.69 212.04H36.88C21.63 212.04 9.22 199.63 9.22 184.38V36.88C9.22 21.63 21.63 9.22 36.88 9.22H239.69C254.94 9.22 267.35 21.63 267.35 36.88V184.38Z" fill="#010101"/>
<path opacity="0.2" d="M239.691 9.21997H36.8807C21.6007 9.21997 9.2207 21.6 9.2207 36.88V46.1C9.2207 30.82 21.6007 18.44 36.8807 18.44H239.691C254.971 18.44 267.351 30.82 267.351 46.1V36.88C267.351 21.6 254.971 9.21997 239.691 9.21997Z" fill="white"/>
<path d="M114.489 68.9801C104.869 61.1301 91.7193 57.1601 79.3893 57.5301C74.0293 57.6901 68.6793 58.6601 63.6293 60.4801C47.1393 66.4001 34.1093 81.1401 30.2493 98.2301C26.3893 115.32 31.8293 134.23 44.1693 146.66C53.2393 155.79 65.8493 161.22 78.6793 161.83C92.4993 162.49 105.319 156.99 116.069 148.63C124.259 142.27 131.279 134.54 137.889 126.58C137.649 126.87 143.379 133.31 143.919 133.95C146.039 136.42 148.229 138.84 150.519 141.17C155.019 145.75 159.909 150 165.329 153.47C176.649 160.74 190.749 163.71 203.969 160.95C216.289 158.38 227.339 150.97 234.859 140.94C235.049 140.69 235.239 140.43 235.419 140.18C239.869 134.03 243.049 126.93 244.479 119.46C247.819 102.05 241.639 83.1201 228.669 71.0301C216.059 59.2801 197.289 54.3501 180.659 58.8901C162.459 63.8601 148.759 78.6601 137.319 93.6601C137.589 93.3101 127.859 82.9401 126.919 81.8801C123.579 78.0901 120.359 74.1301 116.569 70.7701M87.1793 140.57C81.0793 141.74 74.7793 141.08 69.0593 138.68C63.3393 136.28 58.4493 132.24 55.0193 127.08C51.5793 121.91 49.7493 115.85 49.7493 109.64C49.7493 103.43 51.5793 97.3701 55.0193 92.2001C58.4593 87.0301 63.3393 83.0001 69.0593 80.6001C74.7793 78.2001 81.0893 77.5401 87.1793 78.7101C92.1293 79.6601 96.7593 81.8001 100.699 84.8901L122.959 109.89L106.239 128.83C106.149 128.92 106.069 129 106.019 129.07L103.319 132.11C98.8893 136.46 93.2793 139.4 87.1793 140.57ZM219.529 127.08C216.089 132.25 211.209 136.28 205.489 138.68C199.769 141.08 193.459 141.74 187.369 140.57C181.279 139.4 175.659 136.46 171.229 132.11L151.419 109.74L170.199 88.4601L170.129 88.4001L171.229 87.1601C175.659 82.8101 181.269 79.8701 187.369 78.7001C193.469 77.5301 199.769 78.1901 205.489 80.5901C211.209 82.9901 216.099 87.0301 219.529 92.1901C222.969 97.3601 224.799 103.42 224.799 109.63C224.799 115.84 222.969 121.9 219.529 127.07V127.08Z" fill="white"/>
</g>
<defs>
<clipPath id="clip0_252_39">
<rect width="276.56" height="221.25" fill="white"/>
</clipPath>
</defs>
</svg>
