<svg width="295" height="295" viewBox="0 0 295 295" fill="none" xmlns="http://www.w3.org/2000/svg">
<path d="M9.21875 221.25C9.21875 241.614 25.7295 258.125 46.0938 258.125H248.906C269.27 258.125 285.781 241.614 285.781 221.25V138.281H9.21875V221.25Z" fill="#BE2A2C"/>
<path d="M248.906 36.875H46.0938C25.7295 36.875 9.21875 53.3858 9.21875 73.75V147.5H285.781V73.75C285.781 53.3858 269.27 36.875 248.906 36.875Z" fill="#1334A3"/>
<path d="M21.3506 248.418L147.5 147.5L21.3506 46.5823C13.948 53.3305 9.21875 62.9548 9.21875 73.75V221.25C9.21875 232.054 13.948 241.679 21.3506 248.418Z" fill="white"/>
<path opacity="0.15" d="M248.906 36.875H46.0938C25.7295 36.875 9.21875 53.3858 9.21875 73.75V221.25C9.21875 241.614 25.7295 258.125 46.0938 258.125H248.906C269.27 258.125 285.781 241.614 285.781 221.25V73.75C285.781 53.3858 269.27 36.875 248.906 36.875ZM276.562 221.25C276.562 236.498 264.154 248.906 248.906 248.906H46.0938C30.8459 248.906 18.4375 236.498 18.4375 221.25V73.75C18.4375 58.5022 30.8459 46.0938 46.0938 46.0938H248.906C264.154 46.0938 276.562 58.5022 276.562 73.75V221.25Z" fill="black"/>
<path opacity="0.2" d="M248.906 46.0938H46.0938C30.8183 46.0938 18.4375 58.4745 18.4375 73.75V82.9688C18.4375 67.6933 30.8183 55.3125 46.0938 55.3125H248.906C264.182 55.3125 276.562 67.6933 276.562 82.9688V73.75C276.562 58.4745 264.182 46.0938 248.906 46.0938Z" fill="white"/>
<path d="M97.4355 141.075L83.045 143.932C82.5748 141.535 81.6253 139.305 80.3162 137.341L92.5127 129.192L92.4113 120.203L83.423 120.102L75.2736 132.298C73.31 130.98 71.0791 130.04 68.6822 129.57L71.54 115.179L65.1145 108.901L58.6891 115.179L61.5469 129.57C59.15 130.04 56.9191 130.989 54.9555 132.298L46.8061 120.102L37.8178 120.203L37.7164 129.192L49.9128 137.341C48.5945 139.305 47.6542 141.535 47.1841 143.932L32.7936 141.075L26.5156 147.5L32.7936 153.926L47.1841 151.068C47.6542 153.465 48.6038 155.695 49.9128 157.659L37.7164 165.808L37.8178 174.797L46.8061 174.898L54.9555 162.702C56.9191 164.02 59.15 164.96 61.5469 165.43L58.6891 179.821L65.1145 186.099L71.54 179.821L68.6822 165.43C71.0791 164.96 73.31 164.011 75.2736 162.702L83.423 174.898L92.4113 174.797L92.5127 165.808L80.3162 157.659C81.6345 155.695 82.5748 153.465 83.045 151.068L97.4355 153.926L103.713 147.5L97.4355 141.075Z" fill="#F4D24B"/>
</svg>
