<svg width="729" height="589" viewBox="0 0 729 589" fill="none" xmlns="http://www.w3.org/2000/svg">
<path d="M335.4 582.387C494.686 582.387 623.812 453.267 623.812 293.988C623.812 134.71 494.686 5.5896 335.4 5.5896C176.115 5.5896 46.9883 134.71 46.9883 293.988C46.9883 453.267 176.115 582.387 335.4 582.387Z" fill="#4882E7"/>
<path d="M357.204 560.584C503.352 560.584 621.829 438.807 621.829 288.587C621.829 138.367 503.352 16.5903 357.204 16.5903C211.055 16.5903 92.5781 138.367 92.5781 288.587C92.5781 438.807 211.055 560.584 357.204 560.584Z" fill="#5EA9EA"/>
<path d="M363.646 520.644C489.269 520.644 591.105 415.972 591.105 286.853C591.105 157.733 489.269 53.0615 363.646 53.0615C238.024 53.0615 136.188 157.733 136.188 286.853C136.188 415.972 238.024 520.644 363.646 520.644Z" fill="#88C8FF"/>
<path d="M506.159 109.185V140.364C506.159 143.109 503.929 145.339 501.183 145.339H444.69C441.945 145.339 439.715 147.569 439.715 150.314V162.514C439.715 165.259 441.945 167.489 444.69 167.489H466.376C469.121 167.489 471.351 169.719 471.351 172.464V187.826C471.351 190.571 473.581 192.801 476.326 192.801H537.032C539.777 192.801 542.007 190.571 542.007 187.826V172.464C542.007 169.719 544.237 167.489 546.982 167.489H593.951C582.662 144.526 568.42 123.268 551.7 104.22H511.124C508.379 104.22 506.149 106.45 506.149 109.195L506.159 109.185Z" fill="#B8FFB7"/>
<path d="M287.639 455.284H297.807C301.742 455.284 304.924 452.092 304.924 448.168V350.528C304.924 346.594 301.732 343.413 297.807 343.413H203.216C199.282 343.413 196.1 340.221 196.1 336.297V315.95C196.1 312.016 199.291 308.834 203.216 308.834H210.332C214.267 308.834 217.448 305.643 217.448 301.719V243.742C217.448 239.807 220.64 236.626 224.565 236.626H297.797C301.732 236.626 304.914 233.435 304.914 229.51V161.365C304.914 157.43 301.722 154.249 297.797 154.249H285.587C281.652 154.249 278.471 151.058 278.471 147.133V118.65C278.471 114.715 275.28 111.534 271.355 111.534H221.512C217.577 111.534 214.396 114.725 214.396 118.65V146.826C214.396 150.721 211.393 154.12 207.498 154.239C203.603 154.358 200.164 151.127 200.164 147.123V86.6088H216.576C220.382 86.6088 223.474 83.5167 223.474 79.711V45.232C223.474 41.4263 220.382 38.3342 216.576 38.3342H201.928C125.989 77.937 69.7637 150.334 52.1914 236.626H84.214C88.1487 236.626 91.3302 239.817 91.3302 243.742V301.719C91.3302 305.653 94.5215 308.834 98.4463 308.834H142.184C146.118 308.834 149.3 312.026 149.3 315.95V448.178C149.3 452.112 152.491 455.293 156.416 455.293H206.259C210.194 455.293 213.375 458.485 213.375 462.409V555.856C234.496 565.708 257.004 573.061 280.503 577.561V462.399C280.503 458.465 283.694 455.284 287.619 455.284H287.639Z" fill="#B8FFB7"/>
<path d="M290.521 93.1399H334.071C335.825 93.1399 337.252 90.91 337.252 88.1647V77.0252C337.252 74.28 338.679 72.0501 340.433 72.0501H359.027C360.781 72.0501 362.208 69.8202 362.208 67.075V7.08603C353.209 6.23372 344.091 5.77783 334.863 5.77783C318.679 5.77783 302.801 7.13559 287.34 9.71234V88.1548C287.34 90.9001 288.767 93.13 290.521 93.13V93.1399Z" fill="#B8FFB7"/>
<path d="M534.533 451.587C534.533 449.109 536.535 447.107 539.013 447.107H566.873C569.351 447.107 571.353 445.105 571.353 442.628V411.429C571.353 408.951 573.355 406.949 575.833 406.949H600.412C615.17 372.312 623.346 334.225 623.346 294.256C623.346 262.393 618.143 231.72 608.559 203.039H454.61C452.133 203.039 450.131 205.041 450.131 207.518V249.351C450.131 251.829 448.129 253.83 445.651 253.83H428.475C422.508 253.83 417.672 258.667 417.672 264.633V325.187C417.672 331.153 422.508 335.989 428.475 335.989C430.953 335.989 432.955 337.991 432.955 340.469V402.46C432.955 404.938 434.957 406.939 437.434 406.939H458.347C460.825 406.939 462.827 408.941 462.827 411.419V474.906C462.827 477.384 464.829 479.386 467.306 479.386H482.996C485.473 479.386 487.475 481.388 487.475 483.866V527.185C487.475 529.663 489.477 531.665 491.955 531.665H498.506C511.302 522.824 523.353 512.983 534.533 502.24V451.567V451.587Z" fill="#B8FFB7"/>
<path d="M489.516 92.0892H540.439C523.749 75.1223 504.977 60.187 484.551 47.7393V87.124C484.551 89.8693 486.781 92.0992 489.526 92.0992L489.516 92.0892Z" fill="#B8FFB7"/>
<path d="M358.294 82.595H354.538C351.79 82.595 349.562 84.8224 349.562 87.5701V98.7096C349.562 101.457 351.79 103.685 354.538 103.685H358.294C361.042 103.685 363.269 101.457 363.269 98.7096V87.5701C363.269 84.8224 361.042 82.595 358.294 82.595Z" fill="#B8FFB7"/>
<path d="M489.883 113.704H467.147C464.399 113.704 462.172 115.932 462.172 118.679V132.98C462.172 135.728 464.399 137.956 467.147 137.956H489.883C492.631 137.956 494.859 135.728 494.859 132.98V118.679C494.859 115.932 492.631 113.704 489.883 113.704Z" fill="#B8FFB7"/>
<path d="M511.112 105.221V136.4C511.112 139.145 508.882 141.375 506.136 141.375H449.643C446.898 141.375 444.668 143.605 444.668 146.35V158.55C444.668 161.295 446.898 163.525 449.643 163.525H471.329C474.074 163.525 476.304 165.755 476.304 168.5V183.862C476.304 186.607 478.534 188.837 481.279 188.837H541.985C544.73 188.837 546.96 186.607 546.96 183.862V168.5C546.96 165.755 549.19 163.525 551.935 163.525H598.904C587.615 140.562 573.373 119.304 556.653 100.256H516.077C513.332 100.256 511.102 102.486 511.102 105.231L511.112 105.221Z" fill="#8CF065"/>
<path d="M292.592 451.319H302.76C306.695 451.319 309.877 448.128 309.877 444.204V346.564C309.877 342.63 306.685 339.448 302.76 339.448H208.169C204.235 339.448 201.053 336.257 201.053 332.333V311.986C201.053 308.052 204.245 304.87 208.169 304.87H215.285C219.22 304.87 222.402 301.679 222.402 297.755V239.777C222.402 235.843 225.593 232.662 229.518 232.662H302.751C306.685 232.662 309.867 229.47 309.867 225.546V157.4C309.867 153.466 306.675 150.285 302.751 150.285H290.54C286.605 150.285 283.424 147.093 283.424 143.169V114.686C283.424 110.751 280.233 107.57 276.308 107.57H226.465C222.53 107.57 219.349 110.761 219.349 114.686V142.862C219.349 146.756 216.346 150.156 212.451 150.275C208.556 150.394 205.117 147.163 205.117 143.159V82.6447H221.529C225.335 82.6447 228.427 79.5526 228.427 75.7469V41.2679C228.427 37.4622 225.335 34.3701 221.529 34.3701H206.881C130.942 73.9729 74.7168 146.37 57.1445 232.662H89.1671C93.1018 232.662 96.2833 235.853 96.2833 239.777V297.755C96.2833 301.689 99.4746 304.87 103.399 304.87H147.137C151.072 304.87 154.253 308.062 154.253 311.986V444.214C154.253 448.148 157.445 451.329 161.369 451.329H211.212C215.147 451.329 218.328 454.521 218.328 458.445V551.892C239.449 561.743 261.957 569.097 285.456 573.597V458.435C285.456 454.501 288.647 451.319 292.572 451.319H292.592Z" fill="#8CF065"/>
<path d="M295.474 89.1758H339.024C340.778 89.1758 342.205 86.9459 342.205 84.2006V73.0611C342.205 70.3159 343.632 68.086 345.386 68.086H363.98C365.734 68.086 367.161 65.8561 367.161 63.1108V3.12192C358.162 2.26961 349.044 1.81372 339.816 1.81372C323.632 1.81372 307.754 3.17147 292.293 5.74823V84.1907C292.293 86.936 293.72 89.1658 295.474 89.1658V89.1758Z" fill="#8CF065"/>
<path d="M539.486 447.623C539.486 445.145 541.488 443.143 543.966 443.143H571.826C574.304 443.143 576.306 441.141 576.306 438.663V407.465C576.306 404.987 578.308 402.985 580.786 402.985H605.365C620.123 368.348 628.299 330.261 628.299 290.292C628.299 258.429 623.096 227.756 613.512 199.074H459.564C457.086 199.074 455.084 201.076 455.084 203.554V245.387C455.084 247.864 453.082 249.866 450.604 249.866H433.428C427.462 249.866 422.625 254.703 422.625 260.669V321.223C422.625 327.189 427.462 332.025 433.428 332.025C435.906 332.025 437.908 334.027 437.908 336.505V398.496C437.908 400.973 439.91 402.975 442.388 402.975H463.3C465.778 402.975 467.78 404.977 467.78 407.455V470.942C467.78 473.42 469.782 475.422 472.26 475.422H487.949C490.426 475.422 492.429 477.424 492.429 479.902V523.221C492.429 525.698 494.431 527.7 496.908 527.7H503.46C516.255 518.86 528.307 509.019 539.486 498.276V447.603V447.623Z" fill="#8CF065"/>
<path d="M494.469 88.1251H545.392C528.702 71.1582 509.931 56.2229 489.504 43.7751V83.1599C489.504 85.9052 491.734 88.135 494.479 88.135L494.469 88.1251Z" fill="#8CF065"/>
<path d="M363.247 78.6309H359.491C356.743 78.6309 354.516 80.8583 354.516 83.606V94.7455C354.516 97.4932 356.743 99.7206 359.491 99.7206H363.247C365.995 99.7206 368.223 97.4932 368.223 94.7455V83.606C368.223 80.8583 365.995 78.6309 363.247 78.6309Z" fill="#8CF065"/>
<path d="M494.836 109.74H472.1C469.352 109.74 467.125 111.968 467.125 114.715V129.016C467.125 131.764 469.352 133.991 472.1 133.991H494.836C497.584 133.991 499.812 131.764 499.812 129.016V114.715C499.812 111.968 497.584 109.74 494.836 109.74Z" fill="#8CF065"/>
<path d="M543.76 87.1243C488.307 31.6744 414.569 1.12988 336.143 1.12988C257.716 1.12988 183.978 31.6744 128.526 87.1243C73.0733 142.574 42.5273 216.309 42.5273 294.732C42.5273 373.154 73.0733 446.889 128.526 502.339C183.978 557.789 257.716 588.334 336.143 588.334C414.569 588.334 488.307 557.789 543.76 502.339C599.212 446.889 629.758 373.154 629.758 294.732C629.758 216.309 599.212 142.574 543.76 87.1243ZM606.962 295.158C606.962 444.253 485.661 565.539 336.569 565.539C187.477 565.539 66.1751 444.243 66.1751 295.158C66.1751 146.073 187.467 24.7667 336.569 24.7667C485.671 24.7667 606.962 146.063 606.962 295.148V295.158Z" fill="#393939"/>
<path d="M58.0087 318.973C57.8204 315.465 58.1474 311.956 58.0186 308.448C57.979 307.298 57.8997 306.159 57.7807 305.009C57.5032 303.374 57.2158 301.738 56.9185 300.103C56.8491 299.727 56.7896 299.35 56.7202 298.973C44.2124 300.5 31.4371 304.662 21.0503 313.701C20.5349 314.156 20.0295 314.612 19.5241 315.078C3.77538 329.835 -2.47856 353.006 0.881293 384.076C1.65436 391.221 8.30468 396.236 15.3812 394.968H15.4109C21.8036 393.808 26.2239 387.911 25.5103 381.449C22.9829 358.566 26.6698 342.342 36.5115 333.115C36.7593 332.878 37.017 332.65 37.2747 332.432C42.9636 327.456 50.496 324.85 58.4447 323.72C58.2366 322.204 58.088 320.638 57.9888 318.973H58.0087Z" fill="#393939"/>
<path d="M722.586 314.583L722.566 314.563C717.115 311.035 709.85 312.313 705.955 317.516C692.149 335.94 678.363 345.256 664.874 345.256C664.537 345.256 664.19 345.256 663.853 345.236C646.112 344.612 629.878 327.565 620.769 315.009C619.986 313.928 619.045 313.017 618.014 312.263C619.015 316.515 619.471 320.886 619.055 325.504C618.678 329.676 617.965 333.849 617.251 337.981C617.35 338.725 617.251 339.468 617.162 339.864C617.053 340.865 616.894 341.896 616.884 342.55C616.845 344.255 616.617 345.9 616.25 347.476C628.084 358.853 643.981 369.299 662.881 369.993C663.565 370.022 664.249 370.032 664.933 370.032C686.519 370.032 706.916 357.406 725.718 332.432C730.039 326.693 728.622 318.487 722.586 314.573V314.583Z" fill="#393939"/>
<path d="M446.7 191.958C432.131 191.958 419.068 203.167 410.228 220.868C408.771 223.772 410.406 227.28 413.548 228.112L426.432 231.541C431.428 232.869 431.586 239.906 426.65 241.462L403.835 248.637C401.962 249.222 400.594 250.828 400.277 252.76C399.078 260.034 398.434 267.715 398.434 275.663C398.434 321.887 420.05 359.359 446.7 359.359C473.351 359.359 494.967 321.887 494.967 275.663C494.967 229.44 473.351 191.968 446.7 191.968V191.958Z" fill="#393939"/>
<path d="M247.489 191.958C232.92 191.958 219.858 203.167 211.017 220.868C209.56 223.772 211.195 227.28 214.337 228.112L227.221 231.541C232.217 232.869 232.375 239.906 227.439 241.462L204.624 248.637C202.751 249.222 201.383 250.828 201.066 252.76C199.867 260.034 199.223 267.715 199.223 275.663C199.223 321.887 220.839 359.359 247.489 359.359C274.14 359.359 295.756 321.887 295.756 275.663C295.756 229.44 274.14 191.968 247.489 191.968V191.958Z" fill="#393939"/>
<path d="M321.166 314.801C336.618 316.832 355.865 317.764 377.094 315.187C391.535 313.443 399.335 331.579 388.195 340.935C368.274 357.664 339.987 368.595 309.412 340.073C298.995 330.36 307.053 312.937 321.176 314.801H321.166Z" fill="#393939"/>
<path d="M331.465 325.742C332.338 325.762 333.22 325.811 334.082 325.821L340.366 325.95C345.103 326.039 349.93 326.069 354.697 326.049C357.135 326.049 359.573 326.029 362.011 326.019C364.281 326.01 366.56 325.801 368.83 325.94C369.018 325.95 369.197 325.96 369.385 325.98C370.654 326.089 371.942 326.446 373.042 327.09C375.124 328.309 376.848 330.588 376.848 333.076C376.848 335.365 375.381 337.258 373.538 338.457C361.03 346.614 343.279 351.936 324.082 338.031C321.941 336.475 320.583 333.978 321.326 331.322C322.238 328.051 325.093 326.426 328.274 325.901C329.325 325.722 330.395 325.702 331.465 325.732V325.742Z" fill="#D4569D"/>
<path d="M272.958 232.543C276.243 232.543 278.905 229.88 278.905 226.596C278.905 223.312 276.243 220.65 272.958 220.65C269.674 220.65 267.012 223.312 267.012 226.596C267.012 229.88 269.674 232.543 272.958 232.543Z" fill="white"/>
<path d="M259.58 221.641C264.78 221.641 268.995 217.426 268.995 212.226C268.995 207.026 264.78 202.811 259.58 202.811C254.38 202.811 250.164 207.026 250.164 212.226C250.164 217.426 254.38 221.641 259.58 221.641Z" fill="white"/>
<path d="M472.173 232.543C475.457 232.543 478.12 229.88 478.12 226.596C478.12 223.312 475.457 220.65 472.173 220.65C468.889 220.65 466.227 223.312 466.227 226.596C466.227 229.88 468.889 232.543 472.173 232.543Z" fill="white"/>
<path d="M458.791 221.641C463.991 221.641 468.206 217.426 468.206 212.226C468.206 207.026 463.991 202.811 458.791 202.811C453.59 202.811 449.375 207.026 449.375 212.226C449.375 217.426 453.59 221.641 458.791 221.641Z" fill="white"/>
<path d="M581.867 45.5889H479.426C463.377 45.5889 450.367 58.5985 450.367 74.6468C450.367 90.695 463.377 103.705 479.426 103.705H581.867C597.916 103.705 610.926 90.695 610.926 74.6468C610.926 58.5985 597.916 45.5889 581.867 45.5889Z" fill="white"/>
<path d="M180.469 455.888H78.0279C61.979 455.888 48.9688 468.898 48.9688 484.946C48.9688 500.994 61.979 514.004 78.0279 514.004H180.469C196.518 514.004 209.528 500.994 209.528 484.946C209.528 468.898 196.518 455.888 180.469 455.888Z" fill="white"/>
<path d="M89.2886 529.227H16.5811C7.64793 529.227 0.40625 536.468 0.40625 545.401C0.40625 554.333 7.64793 561.575 16.5811 561.575H89.2886C98.2217 561.575 105.464 554.333 105.464 545.401C105.464 536.468 98.2217 529.227 89.2886 529.227Z" fill="white"/>
<path d="M157.673 529.227H143.44C134.507 529.227 127.266 536.468 127.266 545.401C127.266 554.333 134.507 561.575 143.44 561.575H157.673C166.606 561.575 173.848 554.333 173.848 545.401C173.848 536.468 166.606 529.227 157.673 529.227Z" fill="white"/>
<path d="M509.516 0H394.19C385.257 0 378.016 7.2414 378.016 16.1741C378.016 25.1068 385.257 32.3482 394.19 32.3482H509.516C518.449 32.3482 525.69 25.1068 525.69 16.1741C525.69 7.2414 518.449 0 509.516 0Z" fill="white"/>
<path d="M622.502 0H577.546C568.613 0 561.371 7.2414 561.371 16.1741C561.371 25.1068 568.613 32.3482 577.546 32.3482H622.502C631.436 32.3482 638.677 25.1068 638.677 16.1741C638.677 7.2414 631.436 0 622.502 0Z" fill="white"/>
</svg>
