<svg width="570" height="226" viewBox="0 0 570 226" fill="none" xmlns="http://www.w3.org/2000/svg">
<path d="M445.292 99H220.708C185.523 99 157 127.43 157 162.5C157 197.57 185.523 226 220.708 226H445.292C480.477 226 509 197.57 509 162.5C509 127.43 480.477 99 445.292 99Z" fill="white"/>
<path d="M285.841 0H35.1591C15.7412 0 0 15.4462 0 34.5C0 53.5538 15.7412 69 35.1591 69H285.841C305.259 69 321 53.5538 321 34.5C321 15.4462 305.259 0 285.841 0Z" fill="white"/>
<path d="M534.012 0H433.988C414.112 0 398 15.4462 398 34.5C398 53.5538 414.112 69 433.988 69H534.012C553.888 69 570 53.5538 570 34.5C570 15.4462 553.888 0 534.012 0Z" fill="white"/>
</svg>
