<svg width="712" height="589" viewBox="0 0 712 589" fill="none" xmlns="http://www.w3.org/2000/svg">
<path d="M351.361 582.387C510.647 582.387 639.773 453.267 639.773 293.988C639.773 134.71 510.647 5.5896 351.361 5.5896C192.076 5.5896 62.9492 134.71 62.9492 293.988C62.9492 453.267 192.076 582.387 351.361 582.387Z" fill="#4882E7"/>
<path d="M373.164 560.584C519.313 560.584 637.79 438.807 637.79 288.587C637.79 138.367 519.313 16.5903 373.164 16.5903C227.016 16.5903 108.539 138.367 108.539 288.587C108.539 438.807 227.016 560.584 373.164 560.584Z" fill="#5EA9EA"/>
<path d="M379.607 520.644C505.229 520.644 607.066 415.972 607.066 286.853C607.066 157.733 505.229 53.0615 379.607 53.0615C253.985 53.0615 152.148 157.733 152.148 286.853C152.148 415.972 253.985 520.644 379.607 520.644Z" fill="#88C8FF"/>
<path d="M522.12 109.185V140.364C522.12 143.109 519.89 145.339 517.144 145.339H460.651C457.906 145.339 455.676 147.569 455.676 150.314V162.514C455.676 165.259 457.906 167.489 460.651 167.489H482.337C485.082 167.489 487.312 169.719 487.312 172.464V187.826C487.312 190.571 489.542 192.801 492.287 192.801H552.993C555.738 192.801 557.968 190.571 557.968 187.826V172.464C557.968 169.719 560.198 167.489 562.943 167.489H609.912C598.623 144.526 584.381 123.268 567.661 104.22H527.085C524.34 104.22 522.11 106.45 522.11 109.195L522.12 109.185Z" fill="#B8FFB7"/>
<path d="M303.6 455.283H313.768C317.703 455.283 320.884 452.092 320.884 448.168V350.528C320.884 346.594 317.693 343.412 313.768 343.412H219.177C215.242 343.412 212.061 340.221 212.061 336.297V315.95C212.061 312.016 215.252 308.834 219.177 308.834H226.293C230.228 308.834 233.409 305.643 233.409 301.718V243.741C233.409 239.807 236.601 236.626 240.526 236.626H313.758C317.693 236.626 320.875 233.434 320.875 229.51V161.364C320.875 157.43 317.683 154.249 313.758 154.249H301.548C297.613 154.249 294.432 151.057 294.432 147.133V118.65C294.432 114.715 291.24 111.534 287.316 111.534H237.473C233.538 111.534 230.357 114.725 230.357 118.65V146.826C230.357 150.721 227.354 154.12 223.459 154.239C219.564 154.358 216.125 151.127 216.125 147.123V86.6088H232.537C236.343 86.6088 239.435 83.5167 239.435 79.711V45.232C239.435 41.4263 236.343 38.3342 232.537 38.3342H217.889C141.95 77.937 85.7247 150.334 68.1523 236.626H100.175C104.11 236.626 107.291 239.817 107.291 243.741V301.718C107.291 305.653 110.483 308.834 114.407 308.834H158.145C162.08 308.834 165.261 312.026 165.261 315.95V448.177C165.261 452.112 168.452 455.293 172.377 455.293H222.22C226.155 455.293 229.336 458.485 229.336 462.409V555.856C250.456 565.707 272.964 573.061 296.464 577.561V462.399C296.464 458.465 299.655 455.283 303.58 455.283H303.6Z" fill="#B8FFB7"/>
<path d="M306.482 93.1399H350.031C351.786 93.1399 353.213 90.91 353.213 88.1647V77.0252C353.213 74.28 354.64 72.0501 356.394 72.0501H374.987C376.742 72.0501 378.169 69.8203 378.169 67.0751V7.0861C369.17 6.23379 360.052 5.77783 350.824 5.77783C334.64 5.77783 318.762 7.13568 303.301 9.71244V88.1548C303.301 90.9001 304.728 93.13 306.482 93.13V93.1399Z" fill="#B8FFB7"/>
<path d="M550.494 451.587C550.494 449.109 552.496 447.107 554.974 447.107H582.834C585.312 447.107 587.314 445.105 587.314 442.628V411.429C587.314 408.951 589.316 406.949 591.794 406.949H616.373C631.131 372.312 639.307 334.225 639.307 294.256C639.307 262.393 634.104 231.72 624.52 203.039H470.571C468.094 203.039 466.092 205.041 466.092 207.518V249.351C466.092 251.828 464.09 253.83 461.612 253.83H444.436C438.469 253.83 433.633 258.667 433.633 264.633V325.187C433.633 331.153 438.469 335.989 444.436 335.989C446.914 335.989 448.916 337.991 448.916 340.469V402.46C448.916 404.938 450.918 406.939 453.395 406.939H474.308C476.786 406.939 478.788 408.941 478.788 411.419V474.906C478.788 477.384 480.79 479.386 483.267 479.386H498.957C501.434 479.386 503.436 481.388 503.436 483.866V527.185C503.436 529.663 505.438 531.664 507.916 531.664H514.467C527.263 522.824 539.314 512.983 550.494 502.24V451.567V451.587Z" fill="#B8FFB7"/>
<path d="M505.477 92.0895H556.4C539.71 75.1225 520.938 60.1872 500.512 47.7395V87.1243C500.512 89.8695 502.742 92.0994 505.487 92.0994L505.477 92.0895Z" fill="#B8FFB7"/>
<path d="M374.255 82.595H370.499C367.751 82.595 365.523 84.8224 365.523 87.5701V98.7096C365.523 101.457 367.751 103.685 370.499 103.685H374.255C377.003 103.685 379.23 101.457 379.23 98.7096V87.5701C379.23 84.8224 377.003 82.595 374.255 82.595Z" fill="#B8FFB7"/>
<path d="M505.844 113.704H483.108C480.36 113.704 478.133 115.932 478.133 118.679V132.981C478.133 135.728 480.36 137.956 483.108 137.956H505.844C508.592 137.956 510.819 135.728 510.819 132.981V118.679C510.819 115.932 508.592 113.704 505.844 113.704Z" fill="#B8FFB7"/>
<path d="M527.073 105.221V136.4C527.073 139.145 524.843 141.375 522.097 141.375H465.604C462.859 141.375 460.629 143.605 460.629 146.35V158.55C460.629 161.295 462.859 163.525 465.604 163.525H487.29C490.035 163.525 492.265 165.755 492.265 168.5V183.862C492.265 186.607 494.495 188.837 497.24 188.837H557.946C560.691 188.837 562.921 186.607 562.921 183.862V168.5C562.921 165.755 565.151 163.525 567.896 163.525H614.865C603.576 140.562 589.334 119.304 572.614 100.256H532.038C529.293 100.256 527.063 102.486 527.063 105.231L527.073 105.221Z" fill="#8CF065"/>
<path d="M308.553 451.319H318.721C322.656 451.319 325.838 448.128 325.838 444.203V346.564C325.838 342.63 322.646 339.448 318.721 339.448H224.13C220.196 339.448 217.014 336.257 217.014 332.332V311.986C217.014 308.052 220.205 304.87 224.13 304.87H231.246C235.181 304.87 238.363 301.679 238.363 297.754V239.777C238.363 235.843 241.554 232.662 245.479 232.662H318.712C322.646 232.662 325.828 229.47 325.828 225.546V157.4C325.828 153.466 322.636 150.285 318.712 150.285H306.501C302.566 150.285 299.385 147.093 299.385 143.169V114.686C299.385 110.751 296.194 107.57 292.269 107.57H242.426C238.491 107.57 235.31 110.761 235.31 114.686V142.862C235.31 146.756 232.307 150.156 228.412 150.275C224.517 150.394 221.078 147.163 221.078 143.159V82.6447H237.49C241.296 82.6447 244.388 79.5526 244.388 75.7469V41.2679C244.388 37.4622 241.296 34.3701 237.49 34.3701H222.842C146.903 73.9729 90.6778 146.37 73.1055 232.662H105.128C109.063 232.662 112.244 235.853 112.244 239.777V297.754C112.244 301.689 115.436 304.87 119.36 304.87H163.098C167.033 304.87 170.214 308.062 170.214 311.986V444.213C170.214 448.148 173.405 451.329 177.33 451.329H227.173C231.108 451.329 234.289 454.52 234.289 458.445V551.892C255.41 561.743 277.918 569.097 301.417 573.596V458.435C301.417 454.501 304.608 451.319 308.533 451.319H308.553Z" fill="#8CF065"/>
<path d="M311.435 89.1758H354.985C356.739 89.1758 358.166 86.9459 358.166 84.2006V73.0611C358.166 70.3159 359.593 68.086 361.347 68.086H379.941C381.695 68.086 383.122 65.8562 383.122 63.1109V3.12199C374.123 2.26968 365.005 1.81372 355.777 1.81372C339.593 1.81372 323.715 3.17157 308.254 5.74832V84.1907C308.254 86.936 309.681 89.1659 311.435 89.1659V89.1758Z" fill="#8CF065"/>
<path d="M555.447 447.623C555.447 445.145 557.449 443.143 559.927 443.143H587.787C590.265 443.143 592.267 441.141 592.267 438.663V407.465C592.267 404.987 594.269 402.985 596.747 402.985H621.326C636.084 368.348 644.26 330.261 644.26 290.292C644.26 258.429 639.057 227.756 629.473 199.074H475.524C473.047 199.074 471.045 201.076 471.045 203.554V245.387C471.045 247.864 469.043 249.866 466.565 249.866H449.389C443.423 249.866 438.586 254.703 438.586 260.669V321.223C438.586 327.189 443.423 332.025 449.389 332.025C451.867 332.025 453.869 334.027 453.869 336.505V398.496C453.869 400.973 455.871 402.975 458.349 402.975H479.261C481.739 402.975 483.741 404.977 483.741 407.455V470.942C483.741 473.42 485.743 475.422 488.221 475.422H503.91C506.388 475.422 508.39 477.424 508.39 479.901V523.221C508.39 525.698 510.392 527.7 512.869 527.7H519.421C532.216 518.86 544.268 509.019 555.447 498.276V447.603V447.623Z" fill="#8CF065"/>
<path d="M510.43 88.1254H561.353C544.663 71.1584 525.892 56.2231 505.465 43.7754V83.1601C505.465 85.9054 507.695 88.1353 510.44 88.1353L510.43 88.1254Z" fill="#8CF065"/>
<path d="M379.208 78.6309H375.452C372.704 78.6309 370.477 80.8583 370.477 83.606V94.7455C370.477 97.4932 372.704 99.7207 375.452 99.7207H379.208C381.956 99.7207 384.184 97.4932 384.184 94.7455V83.606C384.184 80.8583 381.956 78.6309 379.208 78.6309Z" fill="#8CF065"/>
<path d="M510.797 109.74H488.061C485.313 109.74 483.086 111.968 483.086 114.715V129.016C483.086 131.764 485.313 133.991 488.061 133.991H510.797C513.545 133.991 515.773 131.764 515.773 129.016V114.715C515.773 111.968 513.545 109.74 510.797 109.74Z" fill="#8CF065"/>
<path d="M559.721 87.1243C504.268 31.6744 430.53 1.12988 352.104 1.12988C273.677 1.12988 199.939 31.6744 144.487 87.1243C89.0342 142.574 58.4883 216.309 58.4883 294.732C58.4883 373.154 89.0342 446.889 144.487 502.339C199.939 557.789 273.677 588.334 352.104 588.334C430.53 588.334 504.268 557.789 559.721 502.339C615.173 446.889 645.719 373.154 645.719 294.732C645.719 216.309 615.173 142.574 559.721 87.1243ZM622.923 295.158C622.923 444.253 501.622 565.539 352.53 565.539C203.438 565.539 82.1361 444.243 82.1361 295.158C82.1361 146.072 203.438 24.7766 352.53 24.7766C501.622 24.7766 622.923 146.072 622.923 295.158Z" fill="#393939"/>
<path d="M337.127 314.801C352.579 316.832 371.826 317.764 393.055 315.187C407.496 313.443 415.296 331.579 404.156 340.935C384.235 357.664 355.948 368.596 325.373 340.073C314.956 330.36 323.014 312.938 337.137 314.801H337.127Z" fill="#393939"/>
<path d="M347.426 325.742C348.298 325.762 349.181 325.811 350.043 325.821L356.326 325.95C361.064 326.039 365.891 326.069 370.658 326.049C373.096 326.049 375.534 326.029 377.972 326.019C380.242 326.009 382.521 325.801 384.791 325.94C384.979 325.95 385.158 325.96 385.346 325.98C386.615 326.089 387.903 326.446 389.003 327.09C391.084 328.309 392.809 330.588 392.809 333.076C392.809 335.365 391.342 337.258 389.499 338.457C376.991 346.614 359.24 351.936 340.043 338.031C337.902 336.475 336.544 333.978 337.287 331.322C338.199 328.051 341.053 326.426 344.235 325.9C345.285 325.722 346.356 325.702 347.426 325.732V325.742Z" fill="#D4569D"/>
<path d="M707.169 226.596C701.985 221.72 693.838 221.968 688.952 227.141L632.32 287.289C636.196 291.392 638.604 296.952 638.872 302.977C639.01 305.96 638.426 308.845 637.306 311.491C641.339 312.095 645.601 310.787 648.604 307.586L707.714 244.812C712.59 239.629 712.342 231.482 707.169 226.596Z" fill="#393939"/>
<path d="M4.0471 226.596C9.23059 221.72 17.3775 221.968 22.2636 227.141L78.8955 287.289C75.0202 291.392 72.6118 296.952 72.3442 302.977C72.2055 305.96 72.7903 308.845 73.9102 311.491C69.8764 312.095 65.6146 310.787 62.6116 307.586L3.50199 244.812C-1.37425 239.629 -1.12648 231.482 4.0471 226.596Z" fill="#393939"/>
<path d="M320.754 267.557C305.005 246.368 287.047 235.595 267.363 235.516H267.185C240.752 235.516 220.286 255.347 210.434 267.17C207.748 270.401 206.549 274.643 207.154 278.805C207.768 282.988 210.137 286.714 213.635 289.043L213.665 289.063C216.192 290.738 219.057 291.55 221.891 291.55C226.153 291.55 230.355 289.717 233.269 286.219C238.522 279.915 252.348 265.248 267.175 265.248H267.304C277.116 265.297 287.086 272.066 296.938 285.356C301.586 291.63 310.377 293.196 316.948 288.914C320.368 286.684 322.746 283.107 323.46 279.083C324.183 275.049 323.192 270.847 320.744 267.547L320.754 267.557Z" fill="#393939"/>
<path d="M516.992 267.557C501.244 246.368 483.285 235.595 463.601 235.516H463.423C436.99 235.516 416.524 255.347 406.672 267.17C403.986 270.401 402.787 274.643 403.392 278.805C404.006 282.988 406.375 286.714 409.874 289.043L409.903 289.063C412.431 290.738 415.295 291.55 418.13 291.55C422.391 291.55 426.594 289.717 429.507 286.219C434.76 279.915 448.586 265.248 463.413 265.248H463.542C473.354 265.297 483.325 272.066 493.176 285.356C497.824 291.63 506.616 293.196 513.187 288.914C516.606 286.684 518.985 283.107 519.698 279.083C520.422 275.049 519.431 270.847 516.982 267.547L516.992 267.557Z" fill="#393939"/>
<path d="M597.828 45.5889H495.387C479.338 45.5889 466.328 58.5985 466.328 74.6467C466.328 90.695 479.338 103.705 495.387 103.705H597.828C613.877 103.705 626.887 90.695 626.887 74.6467C626.887 58.5985 613.877 45.5889 597.828 45.5889Z" fill="white"/>
<path d="M196.43 455.888H93.9889C77.94 455.888 64.9297 468.898 64.9297 484.946C64.9297 500.994 77.94 514.004 93.9889 514.004H196.43C212.479 514.004 225.489 500.994 225.489 484.946C225.489 468.898 212.479 455.888 196.43 455.888Z" fill="white"/>
<path d="M105.25 529.227H32.542C23.6089 529.227 16.3672 536.468 16.3672 545.401C16.3672 554.333 23.6089 561.575 32.542 561.575H105.25C114.183 561.575 121.424 554.333 121.424 545.401C121.424 536.468 114.183 529.227 105.25 529.227Z" fill="white"/>
<path d="M173.634 529.227H159.401C150.468 529.227 143.227 536.468 143.227 545.401C143.227 554.333 150.468 561.575 159.401 561.575H173.634C182.567 561.575 189.809 554.333 189.809 545.401C189.809 536.468 182.567 529.227 173.634 529.227Z" fill="white"/>
<path d="M525.477 0H410.151C401.218 0 393.977 7.24134 393.977 16.1741C393.977 25.1068 401.218 32.3482 410.151 32.3482H525.477C534.41 32.3482 541.651 25.1068 541.651 16.1741C541.651 7.24134 534.41 0 525.477 0Z" fill="white"/>
<path d="M638.463 0H593.507C584.574 0 577.332 7.24134 577.332 16.1741C577.332 25.1068 584.574 32.3482 593.507 32.3482H638.463C647.397 32.3482 654.638 25.1068 654.638 16.1741C654.638 7.24134 647.397 0 638.463 0Z" fill="white"/>
</svg>
