<svg width="712" height="589" viewBox="0 0 712 589" fill="none" xmlns="http://www.w3.org/2000/svg">
<path d="M351.361 582.387C510.647 582.387 639.773 453.267 639.773 293.988C639.773 134.71 510.647 5.58963 351.361 5.58963C192.076 5.58963 62.9492 134.71 62.9492 293.988C62.9492 453.267 192.076 582.387 351.361 582.387Z" fill="#4882E7"/>
<path d="M373.164 560.584C519.313 560.584 637.79 438.807 637.79 288.587C637.79 138.367 519.313 16.5904 373.164 16.5904C227.016 16.5904 108.539 138.367 108.539 288.587C108.539 438.807 227.016 560.584 373.164 560.584Z" fill="#5EA9EA"/>
<path d="M379.607 520.644C505.229 520.644 607.066 415.972 607.066 286.853C607.066 157.733 505.229 53.0615 379.607 53.0615C253.985 53.0615 152.148 157.733 152.148 286.853C152.148 415.972 253.985 520.644 379.607 520.644Z" fill="#88C8FF"/>
<path d="M522.12 109.185V140.364C522.12 143.109 519.89 145.339 517.144 145.339H460.651C457.906 145.339 455.676 147.569 455.676 150.314V162.514C455.676 165.259 457.906 167.489 460.651 167.489H482.337C485.082 167.489 487.312 169.719 487.312 172.464V187.826C487.312 190.571 489.542 192.801 492.287 192.801H552.992C555.738 192.801 557.968 190.571 557.968 187.826V172.464C557.968 169.719 560.198 167.489 562.943 167.489H609.912C598.623 144.526 584.381 123.268 567.661 104.22H527.085C524.34 104.22 522.11 106.45 522.11 109.195L522.12 109.185Z" fill="#B8FFB7"/>
<path d="M303.6 455.284H313.768C317.703 455.284 320.884 452.092 320.884 448.168V350.528C320.884 346.594 317.693 343.413 313.768 343.413H219.177C215.242 343.413 212.061 340.221 212.061 336.297V315.95C212.061 312.016 215.252 308.834 219.177 308.834H226.293C230.228 308.834 233.409 305.643 233.409 301.719V243.742C233.409 239.807 236.601 236.626 240.525 236.626H313.758C317.693 236.626 320.875 233.434 320.875 229.51V161.365C320.875 157.43 317.683 154.249 313.758 154.249H301.548C297.613 154.249 294.432 151.058 294.432 147.133V118.65C294.432 114.715 291.24 111.534 287.316 111.534H237.473C233.538 111.534 230.357 114.725 230.357 118.65V146.826C230.357 150.721 227.354 154.12 223.459 154.239C219.564 154.358 216.124 151.127 216.124 147.123V86.6089H232.537C236.343 86.6089 239.435 83.5168 239.435 79.7111V45.2321C239.435 41.4264 236.343 38.3343 232.537 38.3343H217.889C141.95 77.9371 85.7247 150.334 68.1523 236.626H100.175C104.11 236.626 107.291 239.817 107.291 243.742V301.719C107.291 305.653 110.482 308.834 114.407 308.834H158.145C162.079 308.834 165.261 312.026 165.261 315.95V448.178C165.261 452.112 168.452 455.293 172.377 455.293H222.22C226.154 455.293 229.336 458.485 229.336 462.409V555.856C250.456 565.708 272.964 573.061 296.464 577.561V462.399C296.464 458.465 299.655 455.284 303.58 455.284H303.6Z" fill="#B8FFB7"/>
<path d="M306.482 93.1399H350.031C351.786 93.1399 353.213 90.91 353.213 88.1648V77.0253C353.213 74.28 354.64 72.0501 356.394 72.0501H374.987C376.742 72.0501 378.169 69.8203 378.169 67.0751V7.08613C369.17 6.23382 360.051 5.77786 350.824 5.77786C334.64 5.77786 318.762 7.13571 303.301 9.71247V88.1549C303.301 90.9001 304.728 93.13 306.482 93.13V93.1399Z" fill="#B8FFB7"/>
<path d="M550.494 451.587C550.494 449.109 552.496 447.107 554.974 447.107H582.834C585.312 447.107 587.314 445.105 587.314 442.628V411.429C587.314 408.951 589.316 406.95 591.794 406.95H616.373C631.131 372.312 639.307 334.225 639.307 294.256C639.307 262.393 634.104 231.72 624.52 203.039H470.571C468.094 203.039 466.092 205.041 466.092 207.518V249.351C466.092 251.829 464.089 253.831 461.612 253.831H444.436C438.469 253.831 433.633 258.667 433.633 264.633V325.187C433.633 331.153 438.469 335.99 444.436 335.99C446.914 335.99 448.916 337.992 448.916 340.469V402.46C448.916 404.938 450.918 406.94 453.395 406.94H474.308C476.786 406.94 478.788 408.942 478.788 411.419V474.906C478.788 477.384 480.79 479.386 483.267 479.386H498.957C501.434 479.386 503.436 481.388 503.436 483.866V527.185C503.436 529.663 505.438 531.665 507.916 531.665H514.467C527.263 522.824 539.314 512.983 550.494 502.24V451.567V451.587Z" fill="#B8FFB7"/>
<path d="M505.477 92.0895H556.4C539.71 75.1225 520.938 60.1872 500.512 47.7395V87.1242C500.512 89.8695 502.742 92.0994 505.487 92.0994L505.477 92.0895Z" fill="#B8FFB7"/>
<path d="M374.255 82.595H370.499C367.751 82.595 365.523 84.8225 365.523 87.5701V98.7097C365.523 101.457 367.751 103.685 370.499 103.685H374.255C377.003 103.685 379.23 101.457 379.23 98.7097V87.5701C379.23 84.8225 377.003 82.595 374.255 82.595Z" fill="#B8FFB7"/>
<path d="M505.844 113.704H483.108C480.36 113.704 478.133 115.932 478.133 118.68V132.981C478.133 135.728 480.36 137.956 483.108 137.956H505.844C508.592 137.956 510.819 135.728 510.819 132.981V118.68C510.819 115.932 508.592 113.704 505.844 113.704Z" fill="#B8FFB7"/>
<path d="M527.073 105.221V136.4C527.073 139.145 524.843 141.375 522.097 141.375H465.604C462.859 141.375 460.629 143.605 460.629 146.35V158.55C460.629 161.295 462.859 163.525 465.604 163.525H487.29C490.035 163.525 492.265 165.755 492.265 168.5V183.862C492.265 186.607 494.495 188.837 497.24 188.837H557.946C560.691 188.837 562.921 186.607 562.921 183.862V168.5C562.921 165.755 565.151 163.525 567.896 163.525H614.865C603.576 140.562 589.334 119.304 572.614 100.256H532.038C529.293 100.256 527.063 102.486 527.063 105.231L527.073 105.221Z" fill="#8CF065"/>
<path d="M308.553 451.319H318.721C322.656 451.319 325.838 448.128 325.838 444.203V346.564C325.838 342.63 322.646 339.448 318.721 339.448H224.13C220.196 339.448 217.014 336.257 217.014 332.332V311.986C217.014 308.052 220.205 304.87 224.13 304.87H231.246C235.181 304.87 238.363 301.679 238.363 297.754V239.777C238.363 235.843 241.554 232.662 245.479 232.662H318.711C322.646 232.662 325.828 229.47 325.828 225.546V157.4C325.828 153.466 322.636 150.285 318.711 150.285H306.501C302.566 150.285 299.385 147.093 299.385 143.169V114.686C299.385 110.751 296.194 107.57 292.269 107.57H242.426C238.491 107.57 235.31 110.761 235.31 114.686V142.862C235.31 146.756 232.307 150.156 228.412 150.275C224.517 150.394 221.078 147.163 221.078 143.159V82.6446H237.49C241.296 82.6446 244.388 79.5526 244.388 75.7469V41.2678C244.388 37.4622 241.296 34.3701 237.49 34.3701H222.842C146.903 73.9729 90.6778 146.37 73.1055 232.662H105.128C109.063 232.662 112.244 235.853 112.244 239.777V297.754C112.244 301.689 115.436 304.87 119.36 304.87H163.098C167.033 304.87 170.214 308.061 170.214 311.986V444.213C170.214 448.148 173.405 451.329 177.33 451.329H227.173C231.108 451.329 234.289 454.52 234.289 458.445V551.892C255.41 561.743 277.918 569.097 301.417 573.596V458.435C301.417 454.501 304.608 451.319 308.533 451.319H308.553Z" fill="#8CF065"/>
<path d="M311.435 89.1757H354.985C356.739 89.1757 358.166 86.9458 358.166 84.2005V73.061C358.166 70.3158 359.593 68.0859 361.347 68.0859H379.941C381.695 68.0859 383.122 65.8561 383.122 63.1109V3.1219C374.123 2.26958 365.005 1.81363 355.777 1.81363C339.593 1.81363 323.715 3.17147 308.254 5.74823V84.1906C308.254 86.9359 309.681 89.1658 311.435 89.1658V89.1757Z" fill="#8CF065"/>
<path d="M555.447 447.623C555.447 445.145 557.449 443.143 559.927 443.143H587.787C590.265 443.143 592.267 441.141 592.267 438.663V407.465C592.267 404.987 594.269 402.985 596.747 402.985H621.326C636.084 368.348 644.26 330.261 644.26 290.292C644.26 258.429 639.057 227.756 629.473 199.074H475.524C473.047 199.074 471.045 201.076 471.045 203.554V245.387C471.045 247.864 469.043 249.866 466.565 249.866H449.389C443.423 249.866 438.586 254.703 438.586 260.669V321.223C438.586 327.189 443.423 332.025 449.389 332.025C451.867 332.025 453.869 334.027 453.869 336.505V398.496C453.869 400.973 455.871 402.975 458.349 402.975H479.261C481.739 402.975 483.741 404.977 483.741 407.455V470.942C483.741 473.42 485.743 475.422 488.221 475.422H503.91C506.387 475.422 508.389 477.424 508.389 479.901V523.221C508.389 525.698 510.392 527.7 512.869 527.7H519.421C532.216 518.86 544.268 509.019 555.447 498.276V447.603V447.623Z" fill="#8CF065"/>
<path d="M510.43 88.1252H561.353C544.663 71.1583 525.892 56.223 505.465 43.7752V83.16C505.465 85.9052 507.695 88.1351 510.44 88.1351L510.43 88.1252Z" fill="#8CF065"/>
<path d="M379.208 78.6308H375.452C372.704 78.6308 370.477 80.8582 370.477 83.6059V94.7454C370.477 97.4931 372.704 99.7206 375.452 99.7206H379.208C381.956 99.7206 384.184 97.4931 384.184 94.7454V83.6059C384.184 80.8582 381.956 78.6308 379.208 78.6308Z" fill="#8CF065"/>
<path d="M510.797 109.74H488.061C485.313 109.74 483.086 111.968 483.086 114.715V129.016C483.086 131.764 485.313 133.991 488.061 133.991H510.797C513.545 133.991 515.773 131.764 515.773 129.016V114.715C515.773 111.968 513.545 109.74 510.797 109.74Z" fill="#8CF065"/>
<path d="M559.72 87.1242C504.268 31.6744 430.53 1.12985 352.104 1.12985C273.677 1.12985 199.939 31.6744 144.487 87.1242C89.0342 142.574 58.4883 216.309 58.4883 294.732C58.4883 373.154 89.0342 446.889 144.487 502.339C199.939 557.789 273.677 588.334 352.104 588.334C430.53 588.334 504.268 557.789 559.72 502.339C615.173 446.889 645.719 373.154 645.719 294.732C645.719 216.309 615.173 142.574 559.72 87.1242ZM622.923 295.158C622.923 444.253 501.622 565.539 352.53 565.539C203.438 565.539 82.1361 444.243 82.1361 295.158C82.1361 146.072 203.438 24.7766 352.53 24.7766C501.622 24.7766 622.923 146.072 622.923 295.158Z" fill="#393939"/>
<path d="M392.948 357.535C377.497 355.504 358.25 354.572 337.02 357.149C322.58 358.893 314.78 340.757 325.92 331.401C345.841 314.672 374.127 303.74 404.703 332.263C415.119 341.976 407.062 359.398 392.938 357.535H392.948Z" fill="#393939"/>
<path d="M707.169 361.638C701.985 366.514 693.838 366.266 688.952 361.093L632.32 300.946C636.196 296.843 638.604 291.283 638.872 285.257C639.01 282.274 638.426 279.39 637.306 276.744C641.339 276.139 645.601 277.448 648.604 280.649L707.714 343.423C712.59 348.606 712.342 356.752 707.169 361.638Z" fill="#393939"/>
<path d="M4.04706 361.638C9.23055 366.514 17.3774 366.266 22.2636 361.093L78.8954 300.946C75.0202 296.843 72.6118 291.283 72.3442 285.257C72.2055 282.274 72.7902 279.39 73.9101 276.744C69.8763 276.139 65.6147 277.448 62.6116 280.649L3.50202 343.423C-1.37422 348.606 -1.12651 356.752 4.04706 361.638Z" fill="#393939"/>
<path d="M209.949 259.509C225.698 280.698 243.656 291.471 263.34 291.55H263.518C289.951 291.55 310.417 271.719 320.269 259.896C322.955 256.665 324.154 252.423 323.549 248.261C322.935 244.079 320.566 240.352 317.068 238.023L317.038 238.003C314.511 236.328 311.646 235.516 308.812 235.516C304.55 235.516 300.348 237.349 297.434 240.848C292.181 247.151 278.355 261.819 263.528 261.819H263.399C253.587 261.769 243.617 255 233.765 241.71C229.117 235.436 220.326 233.871 213.755 238.152C210.335 240.382 207.957 243.96 207.243 247.983C206.52 252.017 207.511 256.219 209.959 259.519L209.949 259.509Z" fill="#393939"/>
<path d="M406.187 259.509C421.936 280.698 439.895 291.471 459.578 291.55H459.757C486.189 291.55 506.656 271.719 516.507 259.896C519.193 256.665 520.392 252.423 519.788 248.261C519.173 244.079 516.805 240.352 513.306 238.023L513.276 238.003C510.749 236.328 507.885 235.516 505.05 235.516C500.788 235.516 496.586 237.349 493.672 240.848C488.419 247.151 474.593 261.819 459.766 261.819H459.638C449.826 261.769 439.855 255 430.003 241.71C425.355 235.436 416.564 233.871 409.993 238.152C406.574 240.382 404.195 243.96 403.481 247.983C402.758 252.017 403.749 256.219 406.197 259.519L406.187 259.509Z" fill="#393939"/>
<path d="M597.828 45.5888H495.387C479.338 45.5888 466.328 58.5985 466.328 74.6467C466.328 90.6949 479.338 103.705 495.387 103.705H597.828C613.877 103.705 626.887 90.6949 626.887 74.6467C626.887 58.5985 613.877 45.5888 597.828 45.5888Z" fill="white"/>
<path d="M196.43 455.888H93.9889C77.9399 455.888 64.9297 468.898 64.9297 484.946C64.9297 500.994 77.9399 514.004 93.9889 514.004H196.43C212.479 514.004 225.489 500.994 225.489 484.946C225.489 468.898 212.479 455.888 196.43 455.888Z" fill="white"/>
<path d="M105.25 529.227H32.542C23.6089 529.227 16.3672 536.468 16.3672 545.401C16.3672 554.333 23.6089 561.575 32.542 561.575H105.25C114.183 561.575 121.424 554.333 121.424 545.401C121.424 536.468 114.183 529.227 105.25 529.227Z" fill="white"/>
<path d="M173.634 529.227H159.401C150.468 529.227 143.227 536.468 143.227 545.401C143.227 554.333 150.468 561.575 159.401 561.575H173.634C182.567 561.575 189.809 554.333 189.809 545.401C189.809 536.468 182.567 529.227 173.634 529.227Z" fill="white"/>
<path d="M525.476 3.05176e-05H410.151C401.218 3.05176e-05 393.977 7.24137 393.977 16.1741C393.977 25.1068 401.218 32.3483 410.151 32.3483H525.476C534.41 32.3483 541.651 25.1068 541.651 16.1741C541.651 7.24137 534.41 3.05176e-05 525.476 3.05176e-05Z" fill="white"/>
<path d="M638.463 3.05176e-05H593.507C584.574 3.05176e-05 577.332 7.24137 577.332 16.1741C577.332 25.1068 584.574 32.3483 593.507 32.3483H638.463C647.397 32.3483 654.638 25.1068 654.638 16.1741C654.638 7.24137 647.397 3.05176e-05 638.463 3.05176e-05Z" fill="white"/>
</svg>
